<svg xmlns="http://www.w3.org/2000/svg" version="1.1" width="600px" height="600px" viewBox="0 0 200 200" style="overflow:hidden!important;"><g id="svga-group-wrapper"><g id="svga-group-backs-single"></g><g id="svga-group-humanwrap-move" transform="matrix(1,0,0,1,0,0)"><g id="svga-group-humanwrap"><g id="svga-group-hair-back-move" transform="matrix(1,0,0,1,0,0)"><g id="svga-group-hair-back"></g></g><g id="svga-group-humanbody-back"><path id="SvgjsPath5975" d="M166.5 181.1c-10.9-6.6-27.6-8.4-35-12.1-4.9-2.5-9.1-4.7-8.9-17.8s1.9-42.4 1.9-42.4H75.4s1.6 29.4 1.9 42.4-4.2 15.6-8.9 17.8c-7.4 3.5-24.1 5.4-35 12.1-10.8 6.6-10 18.9-10 18.9v19.7h153.3V200c-.1 0 .7-12.3-10.2-18.9z" fill="#f0c7b1" stroke-width="none" opacity="1" stroke="none"></path></g><g id="svga-group-chinshadow-single"><path id="SvgjsPath6140" d="M93 163.2c2.6 1.6 11.4 1.6 14 .1 4.5-2.5 10.6-9.1 15.6-14 .3-13.8 1.9-40.5 1.9-40.5H75.4s1.4 26.5 1.8 40.3c5.1 4.9 11.2 11.6 15.8 14.1z" fill="#d19271" stroke-width="none" opacity="0.65" stroke="none"></path></g><g id="svga-group-humanbody-front"><path id="SvgjsPath5976" d="M78.7 156.8c.5 4.8 1.7 9.4 3.1 13.9.8 2.3 1.6 4.6 2.6 6.9.8 2 1.7 4.2 3.1 5.9.3.4 1 0 .9-.5-.5-2.2-1.6-4.3-2.4-6.4-.9-2.2-1.7-4.4-2.5-6.6-1.5-4.4-2.8-8.9-4.1-13.3-.2-.4-.8-.3-.7.1zm41.3-1c-1.3 8.2-3.9 16.1-5.4 24.2-.1.4.4.5.6.2 3.1-7.7 4.1-16.1 5.1-24.3-.1-.2-.3-.2-.3-.1zm-25.8 11.9c-.9 3.6 1.9 8.6 6.2 7.6.5-.1.4-.8 0-1-1.4-.5-2.9-.9-3.9-2.1-1.1-1.2-1.5-2.9-1.4-4.5 0-.4-.8-.5-.9 0z" fill="#d19271" stroke-width="none" opacity="1" stroke="none"></path><path id="SvgjsPath5977" d="M177.3 219.7c-.1-6.6-.3-13.1-.3-19.7l-.3-.3c.1 0 .1 0 .2.1s.1.2.1.1v-1.4c0-.5-.1-.9-.1-1.4-.1-.9-.3-1.9-.5-2.8-.5-1.8-1.1-3.6-2-5.3-1.7-3.4-4.4-6.2-7.7-8.1-3.6-2.2-7.6-3.8-11.6-5.1-4-1.3-8.1-2.4-12.1-3.5-4-1.2-8.1-2.2-11.8-4.2-1.9-1-3.6-2.1-4.8-3.6-1.2-1.6-1.9-3.5-2.3-5.5-.8-4-.4-8.2-.3-12.4l.7-12.6 1.5-25.2.1-1.4h-1.4c-8.2 0-16.4 0-24.6.1l-24.6.3h-.9l.1.9c.8 11.9 1.6 23.8 2.1 35.7.1 3 .3 6 .2 8.9-.1 2.9-.4 5.9-1.6 8.6-.6 1.3-1.4 2.5-2.4 3.5s-2.3 1.8-3.6 2.4c-2.6 1.3-5.4 2.2-8.3 3-5.8 1.5-11.6 2.8-17.3 4.7-2.8.9-5.7 2-8.4 3.4-1.3.7-2.7 1.4-4 2.4-1.3.9-2.4 1.9-3.5 3.1-2.1 2.3-3.6 5.2-4.5 8.1-.5 1.5-.8 3-1 4.6-.1.8-.1 1.6-.1 2.4v2.3l-.2 17.9v1.3h1.4l38.3.2c12.8.1 25.5.1 38.3 0 12.8-.1 25.6-.1 38.3-.3 12.8-.2 25.6-.5 38.3-.7h.6v-.5zm-77.2-1.6H61.8l-37 .2-.1-16.6v-2.2c0-.7 0-1.4.1-2.1.1-1.4.4-2.8.8-4.2.8-2.7 2.1-5.3 3.9-7.5.9-1.1 2-2.1 3.1-2.9 1.1-.9 2.4-1.6 3.7-2.3 2.6-1.4 5.3-2.5 8.1-3.5 5.6-2 11.4-3.4 17.1-5.1 2.9-.8 5.8-1.7 8.5-3.1 1.3-.7 2.7-1.5 3.8-2.6 1.1-1.1 2-2.4 2.6-3.9 1.2-2.9 1.5-5.9 1.6-8.9 0-3-.1-6-.2-9l-1.3-34.8 23.5.4c7.7.1 15.4.1 23.1.1-.4 7.9-.8 15.9-1.1 23.8-.2 4.2-.2 8.4-.3 12.6 0 4.2-.2 8.5.8 12.8.5 2.1 1.3 4.2 2.8 6 1.4 1.7 3.4 2.9 5.3 3.8 3.9 1.9 8 2.8 12.1 3.8s8.2 2 12.2 3.3c4 1.3 7.9 2.8 11.5 5 3.2 1.9 5.8 4.7 7.5 8 .9 1.6 1.5 3.4 1.9 5.2.2.9.4 1.8.4 2.7.1.5.1.9.1 1.4V200l-.3 19c-12.6-.2-25.1-.5-37.7-.7-12.7-.1-25.5-.1-38.2-.2z" fill="#c27b55" stroke-width="none" opacity="1" stroke="none"></path></g><g id="svga-group-clothes-single"><path id="SvgjsPath10956" d="M129.8 165.2c-1.6-4-5.9-16.6-5.9-16.6-1.3 3.6-4.1 12-9 16-4.3 3.6-13 11.4-14.8 13-1.8-1.6-10.5-9.4-14.8-13-4.9-4-7.6-12.2-8.9-15.8 0 0-4.4 12.4-6 16.5 0 0 6.3 26.5 8.6 31.5 0 0 .1-.1.2-.4.3 2.6.7 5.1 1.3 7.3 2.9 10.7 8.6 17.9 8.6 17.9h21.7s10.3-13.7 11.6-23.8c.2-1.9.4-3.9.4-5.8 2.8-9.3 7-26.8 7-26.8z" fill="#ffffff" stroke-width="none" opacity="1"></path><path id="SvgjsPath10957" d="M96 196.2s-5.3-10.6-5.9-13.8c0 0 11.2-12.1 20.3 1.1l-5.2 12.7s3.3 17.4 3.3 23.9H92.1s1.3-16.5 3.9-23.9z" fill="#222222" stroke-width="none" opacity="1"></path><path id="SvgjsPath10958" d="M110.8 183.2c-2.7-3.9-5.9-6.1-9.5-6.4-6.3-.5-11.4 5-11.6 5.2-.1.1-.2.3-.1.4.5 3 5.1 12.2 5.8 13.7-2.6 7.5-3.8 23.2-3.9 23.8 0 .1 0 1.3.1 1.4s.2.2.4.2h16.4c.3 0 .5-1.2.5-1.5 0-6.3-2.9-22-3.3-23.9l5.2-12.5c.1 0 .1-.2 0-.4zm-6.1 12.8c0 .1-.1.2 0 .3 0 .2 3.1 16.5 3.3 23.3H92.6c.2-2.9 1.6-16.7 3.9-23.2.1-.1 0-.3 0-.4-.1-.1-5.1-10-5.8-13.4.9-.9 5.5-5.1 10.6-4.7 3.2.2 6.1 2.1 8.6 5.7l-5.2 12.4z" fill="#184f58" stroke-width="none" opacity="1"></path><path id="SvgjsPath10959" d="M97.1 188.9c-.9 2.4 1.6 7 1.6 7 .5-4.1-.7-9.4-1.6-7zm6.4-1.6c-1.7.7-1.8 7.9-1.8 7.9 1.8-2.8 3.5-8.6 1.8-7.9zm-.8 14.9c0 1.1.2 5.5 1.4 4.1 1.2-1.4-1.2-7.8-1.2-7.8s-.2 2.6-.2 3.7zm-3.7 2.9c-.5 3.9 1.4 5.2 1.7 2.4.3-2.8-.3-9.2-.3-9.2s-.9 2.9-1.4 6.8zm-2.2-1.4c.7 1.4 1.4-3.3 1.2-5 0-.1-1.9 3.6-1.2 5z" fill="#000000" stroke-width="none" opacity="1"></path><path id="SvgjsPath10960" d="M71.3 157.1s-10.6 8-16.5 10.6l2.3 2.6s-22.3 5.2-26.9 6.7-6.7 3.6-6.7 3.6-1.7-1.3-4.2.2-3.6 39.4-3.6 39.4h72.6s-10.9-23.9-17.6-58.4c.1-.1.6-2.6.6-4.7zm112.9 63s-1.1-37.9-3.6-39.4-4.2-.2-4.2-.2-2.1-2.1-6.7-3.6-26.9-6.7-26.9-6.7l2.3-2.6c-5.9-2.5-16.5-10.6-16.5-10.6 0 2.1.6 4.6.6 4.6-6.7 34.5-17.6 58.4-17.6 58.4l72.6.1z" fill="#386e77" stroke-width="none" opacity="1"></path><path id="SvgjsPath10961" d="M184.1 198c-.3-3.7-.6-7.4-1.1-11-.3-1.9-.5-3.7-1.1-5.6-.1-.2-.2-.5-.4-.8-.1-.1-.2-.3-.4-.4l-.4-.2c-.4-.2-.9-.4-1.5-.5-.9-.2-1.8-.1-2.7.3-2.4-1.9-5.1-2.9-7.8-3.6-2.9-.8-5.8-1.4-8.6-2.1l-16.7-4 2-2.1.1-.1c.1-.2 0-.4-.2-.5-1.5-.6-2.9-1.5-4.2-2.3-1.4-.9-2.7-1.8-4.1-2.7-2.7-1.9-5.3-3.8-7.9-5.8-.1-.1-.3-.2-.4-.2l-1.2.3s-3-7.8-3.7-8.7c-.6 1.3-1.4 4.2-4 9.4-1.1 1.9-3 4.5-5.5 6.5-2.7 2.1-5.2 4.3-7.7 6.5-2.2 1.9-4.3 3.9-6.4 5.8-2.1-1.9-4.2-3.9-6.4-5.8-2.5-2.2-5.1-4.4-7.7-6.4-7.4-6.9-7.1-10-9.2-15-.3-.5-.5-.5-.5-.5l-3.8 7.9c-.2-.1-1.4 0-1.6.1-2.6 2-5.2 3.9-7.8 5.8-1.3.9-2.7 1.8-4.1 2.7-1.4.9-2.8 1.7-4.2 2.3 0 0-.1 0-.1.1-.2.1-.2.4 0 .5l2 2.1-16.7 4c-2.9.7-5.7 1.4-8.6 2.1-2.8.7-5.5 1.8-7.8 3.6-.9-.4-1.8-.5-2.7-.3-.5.1-1 .3-1.5.5-.1.1-.2.1-.4.2l-.4.4c-.2.3-.3.5-.4.8-.6 1.9-.9 3.7-1.1 5.6-.5 3.7-.8 7.4-1.1 11-.5 7.4-.9 14.7-1.2 22.1 0 .6.5 1.1 1.1 1.1 12.2 0 24.9.5 37.1.3l36.2.1c-.1-.4-.8-2.1-.9-2.4l-.3-.9-.7-1.8c-.4-1.2-.9-2.4-1.3-3.6-.8-2.4-1.7-4.8-2.5-7.2-1.2-3.5-2.2-7-3.3-10.5.9-1.6 1.9-3.2 3-4.7.8-1 1.6-1.9 2.4-2.8.4-.4.9-.8 1.4-1.2l1.5-1.2c1-.8 1.9-1.7 2.8-2.7.4-.5.9-1 1.2-1.5.2-.2.4-.5.6-.6.1-.1.3-.3.6-.4.9-.5 2.1-.9 3.3-1.2.6-.1 5.7-.1 6.3 0 1.2.3 2.3.6 3.3 1.2.2.1.4.3.6.4l.6.6 1.2 1.5c.9 1 1.8 1.8 2.8 2.7l1.5 1.2c.5.4.9.8 1.4 1.2.9.8 1.7 1.8 2.4 2.8 1.1 1.5 2.1 3.1 3 4.7-1.1 3.5-2.1 7-3.3 10.5-.8 2.4-1.6 4.8-2.5 7.2-.4 1.2-.9 2.4-1.3 3.6l-.7 1.8-.3.9c-.1.3-1 1.9-1.1 2.4l36.7-.7c12.2.2 24.5.4 36.7.3.6 0 1-.5 1-1.1-.4-7.3-.8-14.6-1.3-22zM16.9 219c.2-7 .4-14 .8-20.9.2-3.7.5-7.3.9-10.9.2-1.8.4-3.7.9-5.3.1-.2.1-.4.2-.5 0-.1.1-.1 0-.1 0 0 .1-.1.2-.1.4-.2.7-.4 1.1-.4.7-.2 1.6-.1 2.1.2.2.1.5.1.6 0 1.8 2.7 3.1 5.6 4 8.6.5 1.6.8 3.2 1 4.9.2 1.7.5 3.3.6 5l1.1 10.1c.4 3.1.8 6.3 1.3 9.4H16.9zm34.8.4-19.6-.3c.2-3.2.2-6.4.1-9.6-.1-3.4-.3-6.8-.7-10.3-.2-1.7-.4-3.4-.8-5.1-.3-1.7-.8-3.4-1.4-5.1-1.2-3.1-3-5.9-5.4-8.1 1-.9 2.2-1.7 3.5-2.3 1.3-.6 2.6-1.1 4.1-1.6 2.8-.8 5.7-1.6 8.5-2.3 5.7-1.4 11.5-2.9 17.2-4.1.6.6 1.2 1.1 2 1.6-.2.2-.5.3-.7.5-1.2.8-2.5 1.6-3.7 2.3-.3.2-.5.6-.4 1 1.5 3.8 3.1 7.6 4.7 11.4 1.6 3.8 3.3 7.5 5 11.2 1.8 3.7 3.6 7.4 5.5 11 1 1.8 1.9 3.6 3 5.4 1 1.7 2 3.3 3.1 4.9l-24-.5zm33.5-6.2c.5 1.2 1 2.4 1.5 3.5.3.6.5 1.2.8 1.7l.4.9c.2.3.2.6.4.8l-12.4-.2c-1.8-3.6-3.4-7.2-5-10.8L66 197.7l-5-11.2-4.8-10.6c2.3-1.5 4.5-3.2 6.6-4.9 1.1-.9 2.3-1.9 3.4-2.9s2.2-1.9 3.3-3c-2.4 1.7-4.8 3.4-7.3 5-.9.6-1.7 1.2-2.6 1.8-.5-.8-1.1-1.5-1.7-2.2-.7-.6-1.3-1.2-2.2-1.7l-.3-.3c1.4-.6 2.7-1.3 4-2 1.4-.8 2.8-1.7 4.2-2.5 2.3-1.5 4.6-3 6.8-4.6-.1 1-.3 1.9-.5 2.9v.3c.9 5 2 10 3.3 15 1.2 5 2.6 9.9 4.1 14.7s3.2 9.7 5 14.5c.9 2.5 1.9 4.8 2.9 7.2zm11.2-36.1c-1.3.4-2.5.8-3.8 1.5-.3.2-.6.4-.9.7-.2.3-.4.5-.6.8-.4.5-.8 1-1.1 1.5-.8.9-1.6 1.8-2.5 2.6-.4.4-.9.9-1.4 1.3-.5.4-1 .9-1.4 1.4-.9 1-1.6 2-2.4 3.1-.9 1.4-1.8 2.9-2.5 4.3-.3-1-.6-2.1-.9-3.1-1.4-4.9-2.7-9.8-3.9-14.7-1.2-4.7-2.2-9.4-3.2-14.1.1-.3.1-.6.2-1 .2-1.4 1.8-4.9 2.8-7.6l1.5-4.7c0 .1.6 2.1 1.5 5.2 1.4 3.6 4.6 8.6 7.2 10.9 2.5 2.2 4.7 4.6 7.2 6.9l5.5 4.9c-.5-.1-.9 0-1.3.1zm21.3 12.8c-.7-1.1-1.5-2.1-2.4-3.1-.4-.5-.9-.9-1.4-1.4-.5-.4-.9-.8-1.4-1.3-.9-.9-1.8-1.7-2.5-2.6-.4-.5-.7-.9-1.1-1.5-.2-.3-.4-.5-.6-.8-.3-.3-.6-.5-.9-.7-1.2-.7-2.5-1.1-3.8-1.5-.4-.1-.8-.2-1.3-.3l5.5-4.9c2.5-2.2 4.6-4.4 7.1-6.6 5-4.9 6.6-9.1 7.5-11.9 1.1-3.5 1.3-4.1 1.3-4.2 0 0 1.1 3.2 2.1 6.1.7 2 2.3 6.7 2.3 7-1 4.7-2 9.4-3.2 14.1-1.2 4.9-2.5 9.8-3.9 14.7-.3 1.1-.6 2.1-.9 3.1-.7-1.3-1.5-2.8-2.4-4.2zm-6 30.2c.2-.1.3-.5.4-.8l.4-.9c.3-.6.5-1.2.8-1.7.5-1.2 1-2.3 1.5-3.5 1-2.4 2-4.7 2.8-7.1 1.8-4.8 3.5-9.6 5-14.5s2.9-9.8 4.1-14.7c1.3-4.9 2.3-9.9 3.3-15v-.3c-.2-.9-.4-1.9-.5-2.9 2.2 1.6 4.5 3.1 6.8 4.6 1.4.9 2.8 1.7 4.2 2.5 1.3.7 2.6 1.4 3.9 2l-.3.3c-.8.5-1.5 1.1-2.1 1.7-.6.6-1.2 1.4-1.7 2.2-.9-.6-1.8-1.1-2.6-1.8-2.4-1.6-4.8-3.4-7.3-5l3.3 3c1.1 1 2.2 1.9 3.4 2.9 2.1 1.7 4.2 3.4 6.6 4.9l-4.8 10.6-5 11.2L129 209c-1.6 3.6-3.2 7.3-5 10.8l-12.3.3zm36.6-.7-24.2.5c1.1-1.6 2.2-3.2 3.1-4.9 1.1-1.8 2-3.6 3-5.4 1.9-3.6 3.7-7.3 5.5-11 1.7-3.7 3.4-7.4 5.1-11.2 1.6-3.8 3.2-7.5 4.7-11.4.1-.4 0-.8-.4-1-1.2-.7-2.5-1.5-3.7-2.3-.2-.2-.5-.3-.7-.5.8-.4 1.4-1 2-1.6 5.8 1.3 11.5 2.7 17.2 4.1 2.9.7 5.7 1.5 8.5 2.3 1.4.4 2.8.9 4.1 1.6 1.3.6 2.5 1.4 3.5 2.3-2.4 2.2-4.1 5.1-5.4 8.1-.7 1.6-1.1 3.4-1.4 5.1-.3 1.7-.6 3.4-.8 5.1-.4 3.4-.6 6.8-.7 10.3-.1 3.2-.1 6.4.1 9.6-6.4 0-12.9.1-19.5.3zm19.7-.3c.5-3.1.9-6.3 1.3-9.4l1.1-10.1c.2-1.7.4-3.4.6-5 .2-1.7.6-3.3 1.1-4.9.9-3 2.2-5.9 4-8.6.2.1.4.1.6 0 .5-.3 1.4-.4 2.1-.2.4.1.8.2 1.1.4.1 0 .2.1.2.1v.1c.1.1.1.3.2.5.5 1.6.7 3.5.9 5.3.4 3.6.6 7.3.9 10.9.4 7 .7 13.9.8 20.9-4.8-.1-9.8-.1-14.9 0z" fill="#184f58" stroke-width="none" opacity="1"></path></g><g id="svga-group-head" transform="matrix(1,0,0,1,0,0)"><g id="svga-group-ears-left-move" transform="matrix(1,0,0,1,0,0)"><g id="svga-group-ears-left"><path id="SvgjsPath6578" d="M61.3 90s-2.5-2.4-5.4-3.5-6.1.7-7.1 3.7c-1 2.9 1.3 15.1 5 19.5s6.2 4.8 8.7 2.5c2.5-2.3 7-10.8-1.2-22.2z" fill="#f0c7b1" stroke-width="none" opacity="1"></path><path id="SvgjsPath6579" d="M62.6 91.8c.4.6.8 1.3 1.2 1.9.4.6.7 1.4 1.1 2 .3.7.6 1.4.9 2.2.2.8.5 1.5.6 2.4.1.4.2.8.2 1.2l.1 1.2c0 1.7-.2 3.4-.7 4.9-.5 1.6-1.2 3-2.2 4.2-.2.3-.5.6-.8.8-.3.2-.6.5-.9.7-.6.4-1.3.7-2.1.8-.7.1-1.5 0-2.2-.3s-1.3-.7-1.8-1.2c-.6-.5-1.1-1-1.6-1.6s-.9-1.1-1.4-1.8c-1.7-2.6-2.6-5.7-3.4-8.7-.4-1.5-.8-3-1.1-4.6s-.6-3.2-.5-4.9c0-.4.1-.9.2-1.3.1-.2.1-.4.2-.6l.3-.6c.4-.7.9-1.3 1.5-1.8 1.2-1 2.6-1.4 4-1.2.7.1 1.4.3 2 .6.6.3 1.2.7 1.8 1.1 1.2.8 2.3 1.6 3.3 2.6l1.3 2zm-4.7-4.1c-.6-.3-1.2-.6-1.8-.8-.6-.2-1.2-.3-1.8-.3-1.2.1-2.3.6-3.3 1.4-.5.4-.9.9-1.2 1.5-.2.3-.3.6-.4.9-.1.3-.2.6-.2.9-.2 1.4-.1 3 .1 4.6.2 1.5.4 3.1.8 4.6.8 3 1.9 6 3.6 8.2.9 1.1 1.9 2.1 3 2.9s2.2 1.3 3.3 1.1c.5-.1 1.1-.3 1.6-.7.5-.4 1-.8 1.4-1.3.8-1 1.5-2.3 1.9-3.7.5-1.4.7-2.8.7-4.3s-.2-3-.4-4.5c-.6-3-2-5.8-3.7-8.2-1.3-.9-2.4-1.7-3.6-2.3z" fill="#e1ac8f" stroke-width="none" opacity="1"></path><path id="SvgjsPath6580" d="M52.6 89.6c3.3.6 5.4 6.1 6 9.8.1.1.1.2.2.3.4.6-.4 1.2-.8.6-.5-.8-1-1.6-1.8-1.9-1.4-.5-2.1 1.1-1.8 2.6.4 1.9 1.6 3 2.6 4.4.1.1 0 .3-.1.2-1.7-1-4.3-4.8-3.1-7.2.9-1.7 2.3-1.4 3.4-.4-.8-2.1-1.4-4.3-3-5.9-.5-.5-1.5-1.4-2.2-1.3-1.3.2-1.3 2.1-1.3 3.4-.1 1.7.1 3.4.4 5 0 .2-.2.2-.3.1-.7-2.4-2-10.4 1.8-9.7z" fill="#d19271" stroke-width="none" opacity="1"></path></g></g><g id="svga-group-ears-right-move" transform="matrix(1,0,0,1,0,0)"><g id="svga-group-ears-right"><path id="SvgjsPath6581" d="M138.7 90s2.5-2.4 5.4-3.5 6.1.7 7.1 3.7c1 2.9-1.3 15.1-5 19.5s-6.2 4.8-8.7 2.5c-2.5-2.3-7-10.8 1.2-22.2z" fill="#f0c7b1" stroke-width="none" opacity="1"></path><path id="SvgjsPath6582" d="M138.6 89.9c1.1-1 2.2-1.8 3.3-2.6.6-.4 1.2-.7 1.8-1.1.6-.3 1.3-.6 2-.6 1.4-.2 2.8.3 4 1.2.6.5 1.1 1.1 1.5 1.8l.3.6c.1.2.2.4.2.6.1.4.2.9.2 1.3.1 1.7-.2 3.3-.5 4.9s-.7 3.1-1.1 4.6c-.9 3-1.8 6-3.4 8.7-.4.7-.9 1.2-1.4 1.8-.5.6-1 1.1-1.6 1.6s-1.2.9-1.8 1.2c-.7.3-1.4.4-2.2.3-.7-.1-1.4-.4-2.1-.8-.3-.2-.6-.4-.9-.7-.3-.3-.6-.5-.8-.8-1-1.2-1.7-2.6-2.2-4.2s-.7-3.3-.7-4.9l.1-1.2c0-.4.1-.8.2-1.2.1-.8.4-1.6.6-2.4.3-.7.6-1.5.9-2.2.4-.7.7-1.4 1.1-2 .4-.6.8-1.3 1.2-1.9l1.3-2zm.1.1c-1.7 2.4-3 5.2-3.7 8.2-.3 1.5-.5 3-.4 4.5s.3 2.9.7 4.3 1.1 2.6 1.9 3.7c.4.5.8 1 1.4 1.3.5.4 1 .6 1.6.7 1.1.2 2.2-.3 3.3-1.1 1-.8 2.1-1.8 3-2.9 1.7-2.3 2.8-5.2 3.6-8.2.4-1.5.6-3.1.8-4.6s.3-3.1.1-4.6c0-.4-.1-.6-.2-.9-.1-.3-.3-.6-.4-.9-.3-.6-.7-1-1.2-1.5-.9-.8-2.1-1.3-3.3-1.4-.6 0-1.2.1-1.8.3-.6.2-1.2.5-1.8.8-1.4.6-2.5 1.4-3.6 2.3z" fill="#e1ac8f" stroke-width="none" opacity="1"></path><path id="SvgjsPath6583" d="M147.4 89.6c-3.3.6-5.4 6.1-6 9.8-.1.1-.1.2-.2.3-.4.6.4 1.2.8.6.5-.8 1-1.6 1.8-1.9 1.4-.5 2.1 1.1 1.8 2.6-.4 1.9-1.6 3-2.6 4.4-.1.1 0 .3.1.2 1.7-1 4.3-4.8 3.1-7.2-.9-1.7-2.3-1.4-3.4-.4.8-2.1 1.4-4.3 3-5.9.5-.5 1.5-1.4 2.2-1.3 1.3.2 1.3 2.1 1.3 3.4.1 1.7-.1 3.4-.4 5 0 .2.2.2.3.1.7-2.4 2-10.4-1.8-9.7z" fill="#d19271" stroke-width="none" opacity="1"></path></g></g><g id="svga-group-faceshape-wrap"><g id="svga-group-faceshape-single"><path id="SvgjsPath6130" d="M143.2 82.9v-.3c-1.3-30.5-20.7-47.3-43.2-47.3S58.1 52.1 56.9 82.6v.3c0 2.4-.5 15.6 3.1 26.5 3.2 9.8 5.7 17.5 13.5 24.1 5.5 4.6 13.8 14.7 19.6 17.9 2.6 1.4 11.4 1.4 14 0 5.8-3.3 14.1-13.4 19.6-17.9 7.8-6.5 10.4-14.3 13.5-24.1 3.4-10.9 2.9-24.2 3-26.5z" fill="#f0c7b1" stroke-width="none" opacity="1" stroke="none"></path><path id="SvgjsPath6131" d="M73.5 133.4c5.5 4.6 13.8 14.7 19.6 17.9 2.6 1.4 11.4 1.4 14 0 5.8-3.3 14.1-13.4 19.6-17.9 7.8-6.5 10.4-14.3 13.5-24.1 3.4-10.9 2.9-24.2 3-26.5v-.3C141.9 52 122.5 35.2 100 35.2S58.1 52.1 56.9 82.6v.3c0 2.4-.5 15.6 3.1 26.5 3.2 9.8 5.7 17.5 13.5 24zM58 89.6c-.2-3.3-.3-6.7 0-10 .4-6.6 1.9-13.2 4.7-19.2 2.8-5.9 6.9-11.2 12.1-15.1C80 41.5 86 39.1 92.2 38c6.2-1 12.6-.7 18.6.9 6.1 1.5 11.7 4.6 16.6 8.7l.9.8c.3.3.6.6.9.8l1.7 1.7c.6.5 1 1.2 1.6 1.8l1.5 1.9c.9 1.4 1.8 2.8 2.6 4.2l1.1 2.2c.4.7.8 1.4 1 2.2 2.6 6.1 3.9 12.7 4.2 19.5-.1 3.4-.1 6.7-.4 10.1-.3 3.4-.7 6.6-1.5 9.9-.4 1.6-.8 3.3-1.3 4.8s-1.1 3.2-1.7 4.7c-1.2 3.2-2.5 6.2-4 9-1.6 2.8-3.4 5.4-5.6 7.5-.5.6-1.1 1-1.7 1.6l-1.9 1.5c-1.4 1.1-2.6 2.2-3.8 3.5-2.5 2.3-4.8 4.7-7.1 6.9s-4.8 4.5-7.2 6.1c-.3.2-1.8 1.3-8 1.1-.8 0-1.5-.1-2.2-.2-.7-.1-3-1.2-3.3-1.4-.6-.4-1.2-.9-1.8-1.3-2.4-1.9-4.8-4.3-7.1-6.6-2.4-2.3-4.7-4.7-7.3-7-.6-.6-1.3-1.1-2-1.7-.6-.5-1.2-1-1.7-1.5-1.1-1-2.2-2.2-3.1-3.5-1.9-2.4-3.4-5.3-4.7-8.2-1.3-3-2.4-6.1-3.6-9.3-1.1-3.1-1.9-6.2-2.5-9.5-.8-3-1.2-6.2-1.4-9.6z" fill="#c27b55" stroke-width="none" opacity="1" stroke="none"></path></g></g><g id="svga-group-mouth-single-move" transform="matrix(1,0,0,1,0,0)"><g id="svga-group-mouth-single"><path id="SvgjsPath6490" d="M85.34 126.92s2.37-.51 5.3-1.54c2.87-1.01 6.09-2.05 8.83-2.14 3.98-.13 6.69.33 9.92 1.61 4.77 1.89 7.89 2.17 7.89 2.17s-2.81 2.71-10.17 4.41c-7.36 1.7-14.09.36-17.26-1.47-3.17-1.83-4.51-3.04-4.51-3.04z" fill="#da7c87" stroke-width="none" opacity="1" transform="translate(0 2)" stroke="none"></path><path id="SvgjsPath6491" d="M118.94 126.28c-.72.2-2.15 1.09-8.57.73-2.91-.16-5.81-.6-8.73-.65-2.85-.05-5.66.33-8.49.57-6.77.58-8.72-.58-9.3-.72-.16-.04-.27.19-.11.27 5.39 2.95 12.12.73 17.9.89 5.62.16 12.32 2.08 17.53-.92.27-.16.09-.26-.23-.17z" fill="#cb5f6c" stroke-width="none" opacity="1" transform="translate(0 2)" stroke="none"></path></g></g><g id="svga-group-eyes-left-move" transform="matrix(1,0,0,1,0,0)"><g id="svga-group-eyes-left"><g id="svga-group-eyesback-left"><path id="SvgjsPath7204" d="M90.4 96.5S89 94 86.9 92.3c-2.1-1.7-5.6-2.5-8.1-2.3-2.5.2-7.1 1.8-9.6 5.5 0 0 2.3 1.2 5.6 1.8 3.3.6 8.9 1.1 12 .4 3-.6 3.6-1.2 3.6-1.2z" fill="#ffffff" stroke-width="none" opacity="1"></path></g><g id="svga-group-eyesiriswrapper-left" transform="matrix(1,0,0,1,0,0)"><g id="svga-group-eyesiriscontrol-left" transform="matrix(1,0,0,1,0,0)"><g id="svga-group-eyesiris-left"><path id="SvgjsPath7475" d="M77.2 88.9c2.5-1.6 5.9-.9 7.6 1.6 1.6 2.5.9 5.9-1.6 7.6-2.5 1.6-5.9.9-7.6-1.6s-.9-5.9 1.6-7.6z" fill="#9b5c1b" stroke-width="none" opacity="1" stroke="none"></path><path id="SvgjsPath7476" d="M84.8 90.5c.4.6.7 1.3.8 2 .2.7.2 1.5.1 2.2s-.4 1.5-.8 2.1c-.4.6-1 1.2-1.6 1.6-.7.4-1.4.6-2.1.7-.7.1-1.5.1-2.2-.1-1.4-.3-2.7-1.2-3.6-2.4-.4-.6-.8-1.3-.9-2s-.2-1.5 0-2.3c.2-.8.4-1.5.9-2.1.4-.6 1-1.2 1.6-1.6.7-.4 1.4-.7 2.1-.8.8-.1 1.5-.1 2.2.1 1.5.5 2.8 1.4 3.5 2.6zm0 .1-.3-.4c-.1-.1-.2-.3-.4-.4-.1-.1-.3-.2-.4-.3-.1-.1-.3-.2-.4-.3-.6-.4-1.3-.6-1.9-.7-1.4-.2-2.7.1-3.8.8-1.1.7-1.9 1.9-2.2 3.2-.3 1.3-.1 2.7.6 3.9.3.6.8 1.1 1.4 1.5.6.4 1.2.7 1.9.8.7.1 1.4.1 2.1-.1s1.3-.5 1.8-.8c.6-.4 1-.9 1.4-1.4.4-.6.7-1.2.9-1.8.2-.7.3-1.4.2-2.1-.3-.6-.5-1.3-.9-1.9z" fill="#7c3f00" stroke-width="none" opacity="1" stroke="none"></path><path id="SvgjsPath7477" d="M80.2 91.6c1.1 0 1.9.9 1.9 1.9s-.9 1.9-1.9 1.9-1.9-.9-1.9-1.9.8-1.9 1.9-1.9z" fill="#000000" stroke-width="none" opacity="1"></path><path id="SvgjsPath7478" d="M80.2 95.7c-1.2 0-2.1-.9-2.1-2.1 0-1.2.9-2.1 2.1-2.1s2.1.9 2.1 2.1c0 1.1-.9 2.1-2.1 2.1zm0-3.9c-1 0-1.8.8-1.8 1.8s.8 1.8 1.8 1.8 1.8-.8 1.8-1.8-.8-1.8-1.8-1.8z" fill="#6d3700" stroke-width="none" opacity="1" stroke="none"></path><path id="SvgjsPath7479" d="M77.7 89.5c.4-.3 1.2.3 1.7 1.1.5.9.6 1.8.1 2-.4.3-1.2-.3-1.7-1.1-.5-.9-.5-1.8-.1-2zm3.7 5c.4 0 .7.3.7.7s-.3.7-.7.7-.7-.3-.7-.7.4-.7.7-.7z" fill="#ffffff" stroke-width="none" opacity="1"></path></g></g></g><g id="svga-group-eyesfront-left"><path id="SvgjsPath7212" d="M74.8 97.4c3.3.6 8.9 1.1 12 .4s3.6-1.3 3.6-1.3-1.4-2.5-3.5-4.2-5.6-2.5-8.1-2.3c-2.5.2-6.8 1.7-9.3 5.2v-.7c0-6.4 4.7-11.5 10.6-11.5s10.6 5.2 10.6 11.5S86 106 80.1 106c-5.5 0-10.1-4.6-10.6-10.5.6.5 2.6 1.4 5.3 1.9z" fill="#f0c7b1" stroke-width="none" opacity="1" stroke="none"></path><path id="SvgjsPath7213" d="M90.9 98c-3.6 2.6-8.4 4.1-12.9 3.7-.2 0-.2-.2 0-.2 4.7-.5 8.5-1.4 12.7-3.7.3-.2.4.1.2.2z" fill="#e1ac8f" stroke-width="none" opacity="1" stroke="none"></path><path id="SvgjsPath7214" d="M69.2 95.7c5.5 4.1 15.4 3.7 21.5 1.5.3-.1.5-.5.3-.8-4.8-9.2-16.2-9.3-22-1-.1.1.1.3.2.3zm10.9 1.9c-3.7-.2-7-1.3-10.5-2.2 5.7-6.8 15.6-6.8 20.2.9-3.2 1.1-6.4 1.5-9.7 1.3z" fill="#000000" stroke-width="none" opacity="1" stroke="none"></path></g></g></g><g id="svga-group-eyes-right-move" transform="matrix(1,0,0,1,0,0)"><g id="svga-group-eyes-right"><g id="svga-group-eyesback-right"><path id="SvgjsPath7205" d="M109.6 96.5s1.4-2.5 3.5-4.2c2.1-1.7 5.6-2.5 8.1-2.3 2.5.2 7.1 1.8 9.6 5.5 0 0-2.3 1.2-5.6 1.8-3.3.6-8.9 1.1-12 .4-3-.6-3.6-1.2-3.6-1.2z" fill="#ffffff" stroke-width="none" opacity="1"></path></g><g id="svga-group-eyesiriswrapper-right" transform="matrix(1,0,0,1,0,0)"><g id="svga-group-eyesiriscontrol-right" transform="matrix(1,0,0,1,0,0)"><g id="svga-group-eyesiris-right"><path id="SvgjsPath7480" d="M117 89c2.5-1.6 5.9-.9 7.6 1.6 1.6 2.5.9 5.9-1.6 7.6-2.5 1.6-5.9.9-7.6-1.6-1.7-2.6-1-6 1.6-7.6z" fill="#9b5c1b" stroke-width="none" opacity="1" stroke="none"></path><path id="SvgjsPath7481" d="M124.6 90.5c.4.6.7 1.3.8 2 .2.7.2 1.5.1 2.2s-.4 1.5-.8 2.1c-.4.6-1 1.2-1.6 1.6-.7.4-1.4.6-2.1.7-.7.1-1.5.1-2.2-.1-1.4-.3-2.7-1.2-3.6-2.4-.4-.6-.8-1.3-.9-2s-.2-1.5 0-2.3c.2-.8.4-1.5.9-2.1.4-.6 1-1.2 1.6-1.6.7-.4 1.4-.7 2.1-.8.8-.1 1.5-.1 2.2.1 1.5.5 2.7 1.4 3.5 2.6zm-.1.1-.3-.4c-.1-.1-.2-.3-.4-.4-.1-.1-.3-.2-.4-.3-.1-.1-.3-.2-.4-.3-.6-.4-1.3-.6-1.9-.7-1.4-.2-2.7.1-3.8.8-1.1.7-1.9 1.9-2.2 3.2-.3 1.3-.1 2.7.6 3.9.3.6.8 1.1 1.4 1.5.6.4 1.2.7 1.9.8.7.1 1.4.1 2.1-.1s1.3-.5 1.8-.8c.6-.4 1-.9 1.4-1.4.4-.6.7-1.2.9-1.8.2-.7.3-1.4.2-2.1-.3-.6-.5-1.3-.9-1.9z" fill="#7c3f00" stroke-width="none" opacity="1" stroke="none"></path><path id="SvgjsPath7482" d="M119.9 91.6c1.1 0 1.9.9 1.9 1.9s-.9 1.9-1.9 1.9-1.9-.9-1.9-1.9.9-1.9 1.9-1.9z" fill="#000000" stroke-width="none" opacity="1"></path><path id="SvgjsPath7483" d="M119.9 95.7c-1.2 0-2.1-.9-2.1-2.1 0-1.2.9-2.1 2.1-2.1s2.1.9 2.1 2.1c.1 1.1-.9 2.1-2.1 2.1zm0-3.9c-1 0-1.8.8-1.8 1.8s.8 1.8 1.8 1.8 1.8-.8 1.8-1.8-.8-1.8-1.8-1.8z" fill="#6d3700" stroke-width="none" opacity="1" stroke="none"></path><path id="SvgjsPath7484" d="M117.4 89.5c.4-.3 1.2.3 1.7 1.1.5.9.6 1.8.1 2s-1.2-.3-1.7-1.1c-.5-.9-.5-1.8-.1-2zm3.8 5c.4 0 .7.3.7.7s-.3.7-.7.7-.7-.3-.7-.7.3-.7.7-.7z" fill="#ffffff" stroke-width="none" opacity="1"></path></g></g></g><g id="svga-group-eyesfront-right"><path id="SvgjsPath7215" d="M125.2 97.4c-3.3.6-8.9 1.1-12 .4s-3.6-1.3-3.6-1.3 1.4-2.5 3.5-4.2 5.6-2.5 8.1-2.3c2.5.2 6.8 1.7 9.3 5.2v-.7c0-6.4-4.7-11.5-10.6-11.5s-10.6 5.2-10.6 11.5S114 106 119.9 106c5.5 0 10.1-4.6 10.6-10.5-.6.5-2.6 1.4-5.3 1.9z" fill="#f0c7b1" stroke-width="none" opacity="1" stroke="none"></path><path id="SvgjsPath7218" d="M109.1 98c3.6 2.6 8.4 4.1 12.9 3.7.2 0 .2-.2 0-.2-4.7-.5-8.5-1.4-12.7-3.7-.3-.2-.4.1-.2.2z" fill="#e1ac8f" stroke-width="none" opacity="1" stroke="none"></path><path id="SvgjsPath7219" d="M131 95.4c-5.8-8.3-17.3-8.2-22 1-.2.3 0 .7.3.8 6.1 2.2 16 2.6 21.5-1.5.1 0 .3-.2.2-.3zm-20.8.9c4.6-7.7 14.5-7.7 20.2-.9-3.5.9-6.8 2-10.5 2.2-3.3.2-6.5-.2-9.7-1.3z" fill="#000000" stroke-width="none" opacity="1" stroke="none"></path></g></g></g><g id="svga-group-facehighlight-single"></g><g id="svga-group-eyebrows-left-move" transform="matrix(1,0,0,1,0,0)"><g id="svga-group-eyebrows-left-rotate" transform="matrix(1,1.7453292519943295e-9,-1.7453292519943295e-9,1,1.4176201545978984e-7,-1.3606350535155798e-7)"><g id="svga-group-eyebrows-left"><path id="SvgjsPath7980" d="M67 82.5c.1-.3.3-.6.5-.8.1-.2.3-.5.5-.7.2-.2.4-.4.7-.6.5-.9 1.7-1.6 2.5-2.1.9-.5 1.8-.9 2.9-.9 1-.2 2.1-.2 2.9.2.4 0 .7.1 1 .3 1.1-.1 2.3.2 3.3.4 1.4.3 2.8.6 4.1 1.2 1.4 0 2.8.1 4.1.5h.2c.1 0 .2.1.2.1h.1c.1 0 .2.1.3.2.1.1 0 .3 0 .4v.1c0 .2 0 .4-.1.6 0 .6-.1 1.1-.5 1.6 0 .1 0 .2-.1.3-.1.5-.2 1.1-.7 1.4-.2.2-.5.3-.8.3-.1 0-.2 0-.3-.1h-.6c-.6.2-1.4 0-1.9-.1-.6-.1-1.2-.3-1.7-.6-1.8-.3-3.5-.8-5.3-1.2-1.6-.4-4-.4-5.4-1.3-.7.1-1.3.2-2 .2-.3 0-.7.1-1.1 0-.2 0-.5 0-.7-.2 0 0-.1 0-.1-.1h-.1l-.4.4c-.3.3-.7.7-1.2.8-.1.2-.3 0-.3-.3z" fill="#2a232b" stroke-width="none" opacity="1"></path><path id="SvgjsPath7981" d="M87.7 83c-.1-.6-.2-1.2-.4-1.7 0-.2.2-.3.3-.1.7 1 .9 2.8.2 3.9-.1.2-.3.1-.3-.1.1-.8.2-1.4.2-2zm-3.4-3.2c1.3.8 2.1 2.6 2.1 4 0 .2-.3.3-.3.1-.2-.7-.4-1.3-.7-1.9-.3-.7-.9-1.2-1.3-1.9-.3-.2 0-.4.2-.3zm-3.3-.7c2.2.8 3.8 3.2 4.2 5.3 0 .2-.2.2-.3.1-.4-1-.9-2-1.7-2.8-.7-.9-1.6-1.4-2.5-2.2-.2-.1.1-.5.3-.4zm-4.9-.8c2.4.6 4.8 2.6 5.8 4.7.1.2-.3.4-.4.2-.8-1-1.6-1.9-2.6-2.7-.9-.7-2-1.2-3-1.8-.2-.1-.1-.4.2-.4zM67.4 82c1.6-1.8 3.8-4.3 6.5-4 .2 0 .2.3 0 .3-2.6.2-4.3 2.5-6.3 3.9-.2.1-.4-.1-.2-.2z" fill="#3a353a" stroke-width="none" opacity="1"></path><path id="SvgjsPath7982" d="M90.9 80.6c-.1-.3-.5-.3-.6 0-.3 1.1-.3 2.4-1.2 3.3-.6.7-1.5.8-2.4.7.3-1.5.2-3.7-.8-4.9-.2-.2-.5-.1-.4.2 0 .8.4 1.6.5 2.4.1.8.2 1.5.2 2.3-.1 0-.2 0-.3-.1-.3-2-1.3-4.1-2.8-5.5 2.3.5 4.6.9 6.9 1.1.1 0 .2-.2.1-.2-2.6-.9-5.3-1.4-8-2-2.4-.5-5.1-1.4-7.6-1.5-2.1-.1-3.6.9-5 2.2-1.5 1.4-3.1 3.1-4.1 4.9l-.2.2c-.1.1-.2.3-.1.4 0 0 0 .1-.1.1-.2.4.3.7.6.4.1 0 .2 0 .3-.1 1.4-.7 2.5-1.4 4.1-1.6 1.3-.2 2.7-.1 4 .1 2.9.4 5.6 1.3 8.3 2.1 2.1.6 4.9 1.7 6.9.2 1.7-1 1.9-3.1 1.7-4.7zm-13.4 1.3c-.5-.1-1.1-.2-1.7-.3.1-1.1-.3-2.3-.8-3.3.7.6 1.4 1.2 2 1.9.6.6.9 1.4 1.5 2-.4-.1-.7-.2-1-.3zM70 79.5c1.2-1.1 2.5-1.7 4-1.9.2.8.6 1.6.7 2.4l.3 1.5c-.3 0-.7-.1-1-.1-.5-.9-1.3-1.8-2.3-2.1-.2-.1-.3.2-.2.4.4.4.9.8 1.3 1.2.1.2.2.3.4.5-1.9-.1-3.8.1-5.4.8.6-1 1.3-1.9 2.2-2.7zm15.2 4.8c-.2-.1-.4-.1-.6-.2-.4-.1-.9-.3-1.3-.4-.8-1.8-2.1-3.6-3.7-4.8-.2-.1-.4.1-.3.2 1.2 1.4 2.2 2.9 3.3 4.4-1.1-.4-2.2-.7-3.2-1.1-.2-1.1-1.2-2.2-1.9-3-.7-.7-1.5-1.4-2.4-1.9.4 0 .8.1 1.3.1 2 .3 4 .8 6 1.2v.1c.7 1.1 1.5 2.2 2.1 3.3.2.7.4 1.4.7 2.1z" fill="#1b141c" stroke-width="none" opacity="1"></path></g></g></g><g id="svga-group-eyebrows-right-move" transform="matrix(1,0,0,1,0,0)"><g id="svga-group-eyebrows-right-rotate" transform="matrix(1,1.7453292519943295e-9,-1.7453292519943295e-9,1,1.4176202967064455e-7,-2.127084570702209e-7)"><g id="svga-group-eyebrows-right"><path id="SvgjsPath7983" d="M133 82.5c-.1-.3-.3-.6-.5-.8-.1-.2-.3-.5-.5-.7-.2-.2-.4-.4-.7-.6-.5-.9-1.7-1.6-2.5-2.1-.9-.5-1.8-.9-2.9-.9-1-.2-2.1-.2-2.9.2-.4 0-.7.1-1 .3-1.1-.1-2.3.2-3.3.4-1.4.3-2.8.6-4.1 1.2-1.4 0-2.8.1-4.1.5h-.2c-.1 0-.2.1-.2.1h-.1c-.1 0-.2.1-.3.2-.1.1 0 .3 0 .4v.1c0 .2 0 .4.1.6 0 .6.1 1.1.5 1.6 0 .1 0 .2.1.3.1.5.2 1.1.7 1.4.2.2.5.3.8.3.1 0 .2 0 .3-.1h.6c.6.2 1.4 0 1.9-.1.6-.1 1.2-.3 1.7-.6 1.8-.3 3.5-.8 5.3-1.2 1.6-.4 4-.4 5.4-1.3.7.1 1.4.2 2 .2.3 0 .7.1 1.1 0 .2 0 .5 0 .7-.2 0 0 .1 0 .1-.1h.1l.4.4c.3.3.7.7 1.2.8.1.2.3 0 .3-.3z" fill="#2a232b" stroke-width="none" opacity="1"></path><path id="SvgjsPath7984" d="M112.3 83c.1-.6.2-1.2.4-1.7 0-.2-.2-.3-.3-.1-.7 1-.9 2.8-.2 3.9.1.2.3.1.3-.1-.1-.8-.2-1.4-.2-2zm3.4-3.2c-1.3.8-2.1 2.6-2.1 4 0 .2.3.3.3.1.2-.7.4-1.3.7-1.9.3-.7.9-1.2 1.3-1.9.3-.2 0-.4-.2-.3zm3.3-.7c-2.2.8-3.8 3.2-4.2 5.3 0 .2.2.2.3.1.4-1 .9-2 1.7-2.8.7-.9 1.6-1.4 2.5-2.2.2-.1-.1-.5-.3-.4zm4.9-.8c-2.4.6-4.8 2.6-5.8 4.7-.1.2.3.4.4.2.8-1 1.6-1.9 2.6-2.7.9-.7 2-1.2 3-1.8.2-.1.1-.4-.2-.4zm8.7 3.7c-1.6-1.8-3.8-4.3-6.5-4-.2 0-.2.3 0 .3 2.6.2 4.3 2.5 6.3 3.9.2.1.4-.1.2-.2z" fill="#3a353a" stroke-width="none" opacity="1"></path><path id="SvgjsPath7985" d="M110.6 85.3c2 1.5 4.8.4 6.9-.2 2.8-.8 5.5-1.8 8.3-2.1 1.3-.2 2.7-.3 4-.1 1.6.2 2.7.9 4.1 1.6.1.1.2.1.3.1.3.3.8 0 .6-.4 0 0 0-.1-.1-.1 0-.1 0-.3-.1-.4l-.2-.2c-1-1.8-2.6-3.5-4.1-4.9-1.4-1.3-2.9-2.3-5-2.2-2.5.1-5.2 1-7.6 1.5-2.7.6-5.4 1.1-8 2-.2.1-.1.2.1.2 2.3-.2 4.6-.6 6.9-1.1-1.5 1.4-2.5 3.5-2.8 5.5-.1 0-.2 0-.3.1.1-.8.1-1.5.2-2.3.1-.8.5-1.6.5-2.4 0-.2-.3-.3-.4-.2-1 1.2-1.1 3.4-.8 4.9-.9.1-1.7 0-2.4-.7-.8-.9-.9-2.2-1.2-3.4-.1-.3-.5-.3-.6 0 0 1.7.2 3.8 1.7 4.8zm10.9-3.2c.5-.6.9-1.4 1.5-2 .6-.7 1.3-1.3 2-1.9-.5 1-.9 2.3-.8 3.3-.6.1-1.2.2-1.7.3-.3.2-.6.3-1 .3zm10.8 0c-1.6-.7-3.6-.9-5.4-.8.1-.2.2-.3.4-.5.4-.5.9-.8 1.3-1.2.1-.1.1-.4-.2-.4-1 .3-1.8 1.2-2.3 2.1-.3 0-.7.1-1 .1l.3-1.5c.2-.8.5-1.6.7-2.4 1.4.2 2.7.8 4 1.9.8.9 1.5 1.8 2.2 2.7zm-16.7.2c.6-1.2 1.4-2.2 2.1-3.3v-.1c2-.4 4-.9 6-1.2.4-.1.9-.1 1.3-.1-.9.5-1.7 1.2-2.4 1.9-.7.8-1.7 1.9-1.9 3-1.1.3-2.2.7-3.2 1.1 1-1.5 2.1-2.9 3.3-4.4.1-.2-.1-.3-.3-.2-1.6 1.2-2.9 3-3.7 4.8-.4.1-.9.3-1.3.4-.2.1-.4.1-.6.2.2-.8.4-1.5.7-2.1z" fill="#1b141c" stroke-width="none" opacity="1"></path></g></g></g><g id="svga-group-beardwrap"><g id="svga-group-beard-single-move" transform="matrix(1,0,0,1,0,0)"><g id="svga-group-beard-single"><path id="SvgjsPath10127" d="M143.3 88.3c-.4-1.3-2.9-2.1-3.2.2-1.5 10.8-5.7 31.9-11.1 35.3-1.3.6-2.2 1.4-3.8 1.6 1-.4 1.8-1 2.6-1.6 1.9-1.3 6.4-5.2 2.2-9.9-3.2-3.6-6.2 1.5-6.2 1.5s1-.9 2.9-.6c3 .4 1.6 4.5-2.7 5.2s-4.6-3-11.2-2.7c-6.7.4-12.4 2.3-12.4 2.3s-5.3-1.9-12-2.3c-6.7-.4-6.8 3.4-11.2 2.7-4.4-.8-5.8-4.8-2.7-5.2 1.9-.3 2.9.6 2.9.6s-3-5.1-6.2-1.5c-4.2 4.7.3 8.6 2.2 9.9.5.3.9.7 1.4 1-1.7 0-4.6-1.6-5.9-3.5-1.9-2.8-6.1-14-7.2-19.5-.7-3.5-1.5-13.1-1.7-14.1s-2.8-.6-3.4.6-2.4 21.3-2.4 21.3c-.3 7.3-.9 16.5 2.1 22.1 1.8 3.9 10.5 15.7 10.5 15.7l-.6-2.1c4.8 4.6 15.2 12.2 15.2 12.2l-.2-1.3C84.7 159 98 167.5 98 167.5l.2-1.3 2.1 1.5s4.9-.6 7.8-2.7 10.5-8.2 10.5-8.2l.2 1.5c4.6-4 11.2-10.8 11.2-10.8l-.6 2.9s13-13.9 14.6-18.5c1.3-3.7 2.3-8.9 2-17.7-.7-12.7-2.4-24.5-2.7-25.9zm-25.1 44.6c-1.1 1.3-11 11-11.4 10.5-.4-.6-1.1-5.3-1.1-5.3-1.7.6-12.9-.2-12.9-.2 0 1.1-1.1 5.5-1.1 5.5l-10.7-11s0-4.3-.3-6.2c.3 0 .5 0 .8-.1 4.8-.4 15.1-.7 19-1.9 3.7 1.1 13.4 1.5 18.4 1.8 0 1.5.2 5.8-.7 6.9z" fill="#2a232b" stroke-width="none" opacity="1"></path><path id="SvgjsPath10128" d="M56.1 98.9c.3-2.6.5-5.3.8-7.9 0-.2-.1-.2-.2-.2l.3-2.7c0-.2-.3-.2-.3 0-.2 1.7-.4 3.3-.5 4.9v.1c-.3 1.9-.5 3.8-.4 5.8-.1.2.3.2.3 0zm-.5 8c.2-2.9.2-5.8.3-8.7 0-.2-.3-.2-.3 0-.1 2.9-.3 5.8-.3 8.7 0 .2.3.2.3 0zm-1.9 3.8c-.3 4.7-.2 9.7.6 14.3 0 .1.2.1.2 0-.1-4.8-.4-9.6-.5-14.3-.1-.2-.3-.1-.3 0zm1.6-4.3c-.2.8-.3 1.7-.5 2.5.1-2.7.2-5.4.4-8.2 0-.2-.3-.2-.3-.1-.8 4.3-1.1 8.7-.7 13-.2 2.6-.1 5.1.3 7.6 0 .2.4.2.4-.1-.1-5-.1-9.9.6-14.9.2.1-.1.1-.2.2zm3.9 29.1v-.1c0-.1-.1-.1-.1-.2-.9-2.1-1.6-4.2-2.2-6.4.1.2.4.1.3-.1-1-4.8-1.7-9.4-1.6-14.3 0-.2-.2-.2-.3 0-.3 4-.1 8.1.9 12-.1 0-.3 0-.3.2.2 1.9.6 3.9 1.2 5.7-.8-1.5-1.5-3-2-4.8 0-.2-.3-.1-.3 0-.1-.9-.2-1.8-.3-2.6 0-.2-.2-.2-.3 0-.1 2.1.2 4.7 1.1 6.6 0 .1.2 0 .2-.1-.2-1-.5-2-.6-3 0-.2 0-.3-.1-.5.4 2.4 1.5 5 3.1 6.8.4 1 .9 1.9 1.5 2.9.1.2.5 0 .4-.2-.1-.6-.4-1.3-.6-1.9zm.4-6c0-.2-.3-.2-.3 0-.3 4.4.6 9.1 3.3 12.7.2.3.6 0 .5-.3-2.2-3.9-3.5-7.8-3.5-12.4zm2.8 6.8c-.1-.3-.5-.2-.5.1.6 4.1 2.2 8.1 5.2 11 .2.2.5-.1.3-.3-2.2-3.3-4.1-6.7-5-10.8zm2.4 3.8c-.1-.3-.6 0-.4.2 2.1 4.4 5.1 8.5 9 11.5.2.1.4-.1.2-.3-3.5-3.4-6.5-7-8.8-11.4zm5.8 5.3c-.2-.2-.5 0-.4.2 2.7 4 5.7 7.9 9.7 10.8.2.1.4-.2.2-.3-3.2-3.5-6.6-6.8-9.5-10.7zm17.5 14c-.1-.1-.1-.1-.2 0-.7-1.1-1.8-2.1-2.8-3-.2-.2-.6.1-.3.3 1.1 1.1 1.9 2.4 3 3.4.1.1.3.1.3-.1 1.1.9 2.2 1.9 3.3 2.8-3.1-2.2-6.3-4.3-9.4-6.5l.9.6c.2.1.5-.2.3-.4-2.4-2.2-4.9-4.1-7.1-6.6-.1-.2-.4.1-.3.2 1.4 1.8 3 3.7 4.9 5.2-.1-.1-.2-.1-.2-.2-.2-.1-.4.1-.2.2 3.7 3.1 7.6 6.1 11.9 8.4.2.1.3 0 .3-.2 1.9 1.5 3.8 2.9 5.8 4 .2.1.5-.2.3-.4-3.3-2.6-7.1-5-10.5-7.7zm9.2 5.5-1.6-1.8c.2.1.3.2.5.3.2.1.4-.1.2-.3-.6-.7-1.4-1.4-2.1-2.1-.4-.4-.8-.8-1.1-1.3l.8.8c.5.5 1 1.1 1.6 1.6.2.1.4 0 .3-.2-.9-1.2-2.1-2.2-3.1-3.2-.1-.1-.3 0-.3.1 0-.1-.1-.1-.1-.1-.1-.2-.4 0-.4.1-1-1.2-2.1-2.3-3.2-3.4-.2-.2-.4.1-.2.2 1.6 1.9 3.1 3.9 4.9 5.6.1.1.2 0 .3-.1.4.5.9 1 1.4 1.5-.2 0-.4.3-.2.6l2 2.2c.6.7 1.2 1.4 1.9 2 .2.2.5-.2.4-.4-.7-.8-1.4-1.4-2-2.1zm1.5-.2c-.2-.2-.6.1-.4.4.3.4.6.7 1 1 .2.1.3-.1.2-.2-.1-.4-.5-.8-.8-1.2zm-40.2-65c.2-2.3.2-4.6.2-6.9 0-.2-.3-.2-.3 0-.2 2.3-.3 4.6-.2 6.9 0 .2.3.2.3 0zm.9 8.6c.3-2.9.4-5.8.2-8.7 0-.2-.3-.2-.4 0-.3 2.9-.3 5.8-.2 8.7.1.2.4.2.4 0zm.3 6.5c.6-2.9.9-6.1 1.2-9.1 0-.2-.2-.2-.3 0-.6 3-1.1 6-1.3 9-.1.3.3.3.4.1zm1.3 4.9c.3-2.6.3-5.2.5-7.8 0-.2-.3-.2-.3 0-.2 2.6-.5 5.2-.5 7.8 0 .2.3.2.3 0zm.3 3.4c-.1 2.8-.1 5.7.3 8.4 0 .2.3.1.3 0-.1-2.8-.3-5.6-.2-8.4 0-.2-.4-.2-.4 0zm2.5 14.4c-.6-3.5-1-6.8-.7-10.3 0-.3-.4-.3-.5 0-.4 3.5-.4 7.1.7 10.4.1.3.6.2.5-.1zm2.9 4.4c-.8-2.7-1.6-5.4-2-8.1 0-.2-.4-.2-.4.1.3 2.8.9 5.6 2.1 8.2.1.1.4 0 .3-.2zm2.6 2.2c.1.2.4.1.4-.2-.7-2.1-1.7-4-2.3-6.1-.1-.3-.6-.2-.5.1.5 2.2 1.2 4.4 2.4 6.2zm3.3 1.4c.3.9.7 1.6 1.2 2.3.1.2.4.1.4-.1-.5-2-1.6-3.9-2.2-5.9-.1-.3-.5-.2-.4.1.2.8.4 1.6.6 2.5-.6-1.2-1.3-2.4-1.7-3.8-.1-.3-.6-.2-.5.1.5 1.6 1.2 3.4 2.3 4.8.1.1.2.1.3 0zm14.1 10.9c.2.1.4-.1.2-.2-1.5-1.7-3.2-3.4-4.7-5.1-.2-.3-.5-.7-.7-1-.2-.3-.6 0-.4.2.9 1.7 1.9 3.6 3.5 4.9.2.1.5 0 .3-.3-.1-.2-.2-.4-.4-.5.8.8 1.5 1.4 2.2 2zm2.2 1.2s.1 0 0 0c.9 1 1.8 2 2.8 2.8.1.1.3-.1.2-.2-1.6-1.7-3.2-3.3-4.5-5.1-.1-.1-.2-.1-.2 0-.1-.1-.2-.3-.3-.4-.2-.2-.4.1-.3.3.7.8 1.4 1.8 2.3 2.6zm8.8 5c-.2-.2-.5 0-.5.2l-.1-.1c-.5-.6-1.1-1.1-1.6-1.7-.1-.1-.4.1-.3.2.4.6.8 1.2 1.3 1.7.4.5.7 1.2 1.3 1.4.1 0 .2-.1.2-.1 0-.1-.1-.2-.1-.3l.7.7c.4.5.8 1.1 1.3 1.6.2.2.4 0 .3-.3-.4-1.3-1.5-2.4-2.5-3.3zm44.5-75.1c-.1-.2-.4 0-.4.1 1.1 2.3 1.8 4.6 2.3 7-.1-.1-.4 0-.3.1.4 4.8.6 9.7.9 14.6-.5-2.1-1-4.2-1.7-6.3-.1-.2-.5-.1-.4.1 1.9 6.5 3 13 3 19.8 0 .2.5.2.5-.1.1-4-.3-8-1.1-11.9.1 0 .1-.1.1-.1.4-4.4.1-8.8-.5-13.1.1 0 .2 0 .2-.1.1-3.5-.8-6.9-2.6-10.1zm1.1 43c-1.1 2.8-2.6 5.2-4.3 7.7-.2.2.2.5.4.3 2.2-2.1 3.6-5 4.3-7.9.1-.3-.3-.3-.4-.1zm.9-18c0-.2-.4-.2-.4 0 .5 5.3.5 10.6.8 15.9-.1.8-.2 1.6-.5 2.5-.4 1.4-1.1 2.6-1.9 3.9-.1.1-.1.2-.1.3-.1.2.1.4.3.2 1.1-1.4 2.1-3.3 2.6-5.2.1 0 .2-.1.2-.2.5-5.8-.2-11.8-1-17.4zm-11 31.3c-.9 2.2-2.3 4.1-3.8 5.9-.1.1.1.3.2.2 1.9-1.6 3.1-3.6 4-5.9.1-.3-.3-.5-.4-.2zm-3 1.7c-2.1 2.8-4.3 5.4-6.7 7.9.2-.4.4-.9.6-1.4.1-.2-.3-.4-.4-.1-.6 1.2-1.3 2.4-2.1 3.4-.4.4-.9.9-1.3 1.4-.1.1-.1.2 0 .3-.8.9-1.8 1.7-2.7 2.5-.1.1 0 .3.2.2 1.5-.8 2.8-2 3.9-3.3 3.7-2.8 7-6.6 9.1-10.6.1-.3-.4-.6-.6-.3zm-10.5 9c-2.1 2.8-4.5 5.3-6.8 7.9-.2.2.1.6.3.4 2.8-2.1 5.2-5.1 7-8 .2-.4-.3-.6-.5-.3zm-4.8 5.1c.3-.3-.2-.7-.4-.4-1.9 1.9-4 3.5-6.1 5.1.4-.5.9-1 1.3-1.5.1-.2-.1-.4-.2-.2-1.9 1.8-4 3.2-6 4.8-.2.2.1.4.3.3 1.2-.5 2.2-1.2 3.2-2 .1.1.2.1.3.1 2.8-1.4 5.4-3.8 7.6-6.2zm-10.4 5.7c-1.3.7-2.9 1.6-3.8 2.9-.1.2.1.4.3.3 1.3-.8 2.3-2 3.7-2.8.2-.1 0-.5-.2-.4zm-3.2 1.3c.1-.2-.2-.3-.3-.2-.2.3-.4.5-.4.8 0 .1.1.2.2.1.2-.1.3-.4.5-.7zm-24.9-17.2c-1.1-1.7-2.2-3.3-2.7-5.3-.1-.2-.4-.1-.3.1.5 2 1.3 4 2.8 5.4.1.2.3 0 .2-.2zM79 151c-.6-1.5-1.8-2.9-2.7-4.2-.2-.2-.5 0-.4.2.9 1.4 1.7 3 2.8 4.2.1.1.4 0 .3-.2zm2 1.2c-.6-1.7-1.8-3.3-2.6-5-.1-.2-.6-.1-.4.2.7 1.7 1.4 3.7 2.7 5 .1.1.4 0 .3-.2zm2.2 1.9c-.7-1.6-1.9-3.1-2.6-4.7-.1-.3-.7-.1-.5.2.7 1.6 1.5 3.5 2.8 4.8.2.2.4 0 .3-.3zm17.3 9.2c.1.5.3.9.4 1.4.1.4.2.9.5 1.3.2.2.6.2.6-.2s-.2-.9-.4-1.3c-.2-.5-.3-.9-.5-1.4-.2-.3-.7-.2-.6.2zm-30.8-32.2c-.2-1.6-.5-3.1-.9-4.7 0-.1-.2-.1-.2 0 .2 1.6.5 3.1.8 4.7.2.1.3.1.3 0zm1.5 3.3c-.4-1.7-.8-3.4-.9-5.2 0-.2-.3-.2-.3 0 .1 1.8.3 3.6.9 5.3.1.1.3.1.3-.1zm1.7 3.2c-.2-1.8-.6-3.6-1-5.4 0-.2-.3-.1-.3.1.3 1.8.5 3.6 1 5.4 0 .1.3 0 .3-.1zm.3-2.2c.2 1.8.7 3.5 1.7 5 .1.1.3 0 .2-.1-.8-1.6-1.3-3.2-1.6-4.9 0-.2-.3-.2-.3 0zm1.4 1.2c.4 1.9 1 3.8 2.2 5.4.1.1.3 0 .2-.1-.8-1.8-1.6-3.5-2-5.4-.1-.3-.4-.2-.4.1zm1.9 1.8c.7 2.1 1.5 4.4 2.8 6.2.1.1.4.1.3-.1-.9-2.1-1.9-4-2.7-6.2 0-.3-.5-.2-.4.1zm2.6 3.5c.6 1.3 1.1 2.7 1.9 3.8.1.2.4.1.3-.1-.4-1.4-1.2-2.7-1.8-3.9-.2-.3-.6-.1-.4.2zm1.7 1.6c.6 1.7 1.3 3.5 2.4 4.9.2.2.4-.1.3-.2-.7-1.6-1.6-3.1-2.3-4.7 0-.4-.4-.3-.4 0zm2 2.9c.9 1.7 1.9 3.5 3.2 4.8.2.1.4 0 .3-.2-1-1.6-2.2-3.1-3.2-4.8-.2-.2-.4 0-.3.2zm5.3 5.6c-.4-.9-1.2-1.8-1.7-2.7-.1-.1-.3 0-.2.1.6.9 1.1 1.9 1.7 2.7 0 .2.2 0 .2-.1zm2.2-4.4c0 2.5.7 5 2.3 6.9.2.2.4-.1.3-.2-1.1-2.2-1.9-4.2-2.2-6.6 0-.3-.4-.3-.4-.1zm5.7 10.9c-.9-2.1-2-4.1-2.8-6.3-.1-.2-.4-.1-.3.1.7 2.2 1.5 4.5 2.8 6.4.1.2.4.1.3-.2zm2.8 3.7c-1.1-2.1-2.3-4-3.1-6.3-.1-.3-.6-.2-.5.1.6 2.3 1.5 4.7 3.2 6.4.3.3.6.1.4-.2zm-4.9-16.1c-.1-2.4-.3-4.7-.3-7.1 0-.2-.3-.2-.4 0-.2 2.4-.3 4.8.2 7.1.1.4.5.3.5 0zm.3-2.7c-.5 2.5-.4 5.2.7 7.5.1.2.4.1.4-.2-.6-2.5-1-4.8-.7-7.3.1-.2-.3-.3-.4 0zm2.6 9.9c-.1-1.6-.4-3.1-.6-4.7 0-.3-.4-.3-.4 0 .1 1.6.1 3.2.6 4.7 0 .3.4.3.4 0zm6 6.8c0 .1.2.1.2 0 .1-1.6-.1-3.1-.2-4.7 0-.1-.2-.2-.3-.1v-.4c0-.1-.1 0-.1 0 .1.2 0 .4-.1.6 0 .1.1.1.1.1.1-.1.1-.2.1-.3v.1c.1 1.6.2 3.1.3 4.7zm1.5 1.6c.1-1.4 0-2.9.1-4.4 0-.2-.4-.2-.4 0-.1 1.4-.3 3-.1 4.4 0 .3.4.2.4 0zm1.6-.9c.2-1.4 0-3 0-4.4 0-.3-.5-.3-.5 0 0 1.4-.2 3 0 4.4.2.1.5.2.5 0zm-1.6-9.7c-.1-2.1-.7-4.2-1.2-6.2-.1-.2-.3-.1-.3.1.5 2 .8 4.1 1.2 6.1.1.1.4.1.3 0zm.6-3.6c-.2-1.1-.4-2.2-.7-3.3 0-.1-.3-.1-.2.1.2 1.1.4 2.2.7 3.3 0 0 .2 0 .2-.1zm.7-1.5c0-1.7-.5-3.5-1-5.2-.1-.2-.5-.1-.4.1.5 1.7.7 3.4 1 5.1 0 .2.4.2.4 0zm.8.1c-.1-2.2-.7-4.5-1.4-6.6 0-.1-.2-.1-.2.1.6 2.2.9 4.4 1.3 6.6 0 .2.3.1.3-.1zm4.3 6.5c-.3 2.9-.9 5.7-1.5 8.5-.1.2.2.3.3.1 1.1-2.7 1.5-5.7 1.5-8.6 0-.2-.3-.2-.3 0zm1.5 6.1c1-1.4 1.3-3.5 1.5-5.2 0-.3-.5-.3-.5 0-.1.9-.3 1.8-.5 2.7-.2.8-.6 1.6-.7 2.4-.1.1.1.2.2.1zm1.7-.6c1-1.4 1.5-3.3 1.8-4.9.1-.4-.5-.5-.5-.1-.4 1.7-1.2 3.2-1.7 4.8-.1.3.3.4.4.2zm1.8-1c.4-.5.5-1.1.8-1.7.3-.7.5-1.4.8-2.2.1-.4-.4-.5-.6-.1-.3.7-.5 1.4-.8 2-.2.6-.6 1.2-.6 1.8.1.2.3.3.4.2zm2.2-1.7c.7-1.2 1-2.6 1-4 0-.3-.4-.3-.5 0-.1 1.4-.5 2.6-.9 3.8 0 .2.3.4.4.2zm4-7.2c-.4 1.1-1 2.2-1.3 3.3 0 .1.2.2.2.1.6-1 .9-2.2 1.4-3.3.1-.3-.2-.4-.3-.1zm3.1-3.6c-.3.8-.6 1.7-.9 2.5-.3.8-.7 1.6-.9 2.5 0 .2.2.3.3.1.9-1.4 1.4-3.4 1.9-5 .2-.3-.3-.4-.4-.1zm.5 4c.6-1.3.9-2.9 1.2-4.2.1-.2-.3-.3-.4-.1-.5 1.3-1.1 2.8-1.2 4.2 0 .2.3.4.4.1zm2.8-4.8c-.1.5-.2.9-.3 1.4 0 .1.2.2.2 0 .2-.4.2-.9.3-1.4.1-.1-.2-.2-.2 0zm2.9-5.6c-.1 1.9-.5 3.7-.8 5.6 0 .3.4.3.5.1.7-1.7.8-3.8.8-5.6 0-.5-.5-.5-.5-.1zm1.2 4.8c.5-1.5.5-3.3.8-4.9 0-.2-.3-.4-.4-.1-.3 1.6-.8 3.4-.7 5 0 .2.3.2.3 0zm.7-1.8c0 .2.3.2.4.1.3-.6.3-1.3.4-1.9.1-.7.2-1.5.3-2.2.1-.3-.4-.5-.5-.1l-.4 2.3c-.1.6-.2 1.2-.2 1.8zm7.6-5c.1-.1-.2-.3-.3-.1-.7 1.3-1.4 2.7-2.1 4l-.6.9c.4-.9.7-1.9.9-2.8.1-.3-.3-.3-.4-.1-1.1 2.8-2.6 5.2-4.3 7.7-.2.2.2.5.4.3.6-.6 1.2-1.3 1.7-2h.1c2.1-2.1 3.6-5.2 4.6-7.9zm-5.4 3.4c.4-1.1.5-2.4.6-3.6.1-.3-.4-.4-.4-.1-.2 1.2-.5 2.4-.6 3.7 0 .1.4.2.4 0zm.6-5.5c0-3-.3-5.9-.6-8.9 0-.2-.4-.2-.4 0 .1 3 .1 6 .6 8.9 0 .3.4.2.4 0zm.7-3.6c0-1.6-.4-3.3-.6-4.9 0-.2-.4-.2-.4.1.2 1.6.3 3.3.7 4.9.1.1.3.1.3-.1zm.5-4.1c.1-1.6-.3-3.3-.5-5 0-.2-.3-.2-.3 0 .1 1.7 0 3.4.4 5 .1.3.4.3.4 0zm.8-5.5c.1-.7 0-1.6 0-2.3 0-.2-.4-.2-.4 0 0 .8-.1 1.6 0 2.3.1.2.4.2.4 0zm1-9.2c0-1.2-.3-2.5-.5-3.7 0-.3-.5-.2-.4.1.2 1.2.2 2.4.6 3.6 0 .3.3.2.3 0zm.8-2.4c0-1.6-.4-3.3-.7-4.9-.1-.2-.4-.1-.3.1.3 1.6.4 3.2.7 4.8 0 .2.3.2.3 0zM118 132.4c-.7 2.6-1.6 5-2.4 7.5-.1.2.3.4.4.2 1.3-2.3 2-4.9 2.4-7.6.1-.3-.3-.4-.4-.1zm-4.5 9.4c1-1.8 1.8-3.7 2.6-5.5.1-.2-.2-.4-.3-.2-.9 1.9-1.8 3.7-2.6 5.6 0 .2.2.2.3.1zm0-3.3c-.8 1.3-1.6 2.5-2.2 3.9-.1.1.1.2.2.1.9-1.2 1.7-2.5 2.4-3.7.1-.3-.3-.6-.4-.3zm-35.1-12c.7.1 1.3.2 2 .2-1 2.7-.5 6.6.9 9 .1.2.4.1.4-.1.3.9.7 1.7 1.2 2.6.1.2.5.1.4-.2-.9-2.5-1.8-4.9-2.5-7.5 0-.1-.1-.1-.1-.1 0-1.2.1-2.4.1-3.6 2.5.1 5.2-.4 7.6-.7 3.9-.4 7.8-.7 11.6-1.4.1 0 .1 0 .1-.1 5.3 1.2 12.2 2.8 18.4 2.2.1 2.3.3 4.5.2 6.8 0 .2.3.3.4.1.5-2.2.7-4.7.1-6.9 3.9-.4 7.5-1.7 10.2-4.4.2-.2-.1-.4-.3-.3-.5.4-.9.7-1.4 1 1.4-1.5 2.3-3.4 2.4-5.5 0-.2-.3-.2-.3 0-.4 2.4-1.4 4.5-3.1 6.1-1.7.9-3.4 1.4-5.2 1.8 2.3-1.1 4.3-3 5.1-5.4.1-.3-.3-.5-.5-.2-1.7 3-4.1 5.2-7.4 5.9-1.2.1-2.5 0-3.8-.1 3.6-.6 7-2.5 9.2-5.5.2-.2-.2-.4-.3-.3-3.4 3.3-7.2 5.3-11.7 5.4-4.3-.6-8.6-1.6-12.6-1.8.8-.9 1.2-2.1 1.1-3.2 0-.2-.4-.3-.5-.1-.3 1.7-1.1 2.9-2.4 3.9-3.3.3-7 1-10.6 1.3-2.9-.6-5.2-2.1-7.2-4.3-.2-.2-.5.1-.3.3 1.3 2.1 3.4 3.6 5.8 4.2-2.8.2-5.5.1-7.8-.6-.5-.4-1-.7-1.4-1.2-.7-.8-1.1-1.6-1.5-2.5-.1-.2-.3-.1-.3.1.2 1.1.9 2.2 1.8 3.1-2.8-1.2-5.1-3.4-6.4-7.3-.1-.2-.4-.1-.3.1 1 4.6 4.3 8.2 8.9 9.2zm7.5 15.1c-.7-1.9-1.7-3.7-2.7-5.5-.1-.2-.4 0-.3.2.8 1.9 1.6 3.7 2.7 5.4.1.2.4.1.3-.1zm-.2-2.1c.6 1.2 1.2 2.6 2.1 3.6.2.2.5 0 .4-.2-.4-1.3-1.3-2.5-2-3.6-.3-.3-.7-.1-.5.2zm-15.6-22.9c1.2-3.1 4.5-3.8 6.7-1.3.2.2.5-.1.3-.3-1.8-3.3-7.2-2.2-7.5 1.6.1.2.4.2.5 0zm13.1 3.8c-.2-.1-.3.2-.2.3 3.7 1.8 7.7 4.5 12 3.8.2 0 .1-.3 0-.3-4.2 0-8-2-11.8-3.8zm41.3-5.6c1.4-2.3 5.1-.2 5.7 1.7.5 1.7 0 3.4-.6 5.1-.1.2.3.4.4.2 1.9-1.9 2.1-5.7-.1-7.5-1.6-1.3-5.1-2.4-5.8.3 0 .3.3.4.4.2zm-23.4 5c5.6-.9 11.3-2.4 16.9-1.4.1 0 .2-.2.1-.2-4.7-2.5-12.3-.1-17.1 1.2-.3 0-.2.5.1.4zm-21.8 1.3c7.1-4.1 13.7-2.8 21.3-1.2.3.1.4-.3.1-.4-6.8-2.6-15.7-4.1-21.6 1.2-.2.2 0 .5.2.4z" fill="#1b141c" stroke-width="none" opacity="1"></path></g></g></g><g id="svga-group-mustache-single-move" transform="matrix(1,0,0,1,0,0)"><g id="svga-group-mustache-single"><path id="SvgjsPath9729" d="M73.9 130.6c-.2.1 9.4-16 25.9-15.3s23.3 9.9 27.2 16c0 0-3.8-1.3-4.8-1.7s-3.8-4.4-3.8-4.4 1.6 3.3 1.7 3.7c.1.4-4.1-1.1-6-2.3-1.9-1.2-3.6-3.5-3.6-3.5l1.9 3.6s-4.3-.8-5.5-1.3c-1.2-.5-3.1-3.4-3.1-3.4l1.6 3.1s-1.6.2-2.3-.3-1.5-3.1-1.5-3.1.1 2.9-.2 3c-.3.2-2.9.7-2.9.7l1-3s-1.2 2.9-1.9 3-4.6.6-6.2 1-4.3.9-5.2 1.2c0 0 .5-2.6 1-3.7 0 0-1.8 2.7-2.6 4.2 0 0 .6-3 .9-3.8 0 0-1.7 2.2-2.4 3.7 0 0-.5.6-3.1 1.3-2.8.6-3.8.5-6.1 1.3z" fill="#2a232b" stroke-width="none" opacity="1"></path><path id="SvgjsPath9730" d="M104.3 117c1.7 2.4 3.2 4.8 4.6 7.4.1.1.2 0 .2-.1-1-2.7-2.6-5.4-4.5-7.5-.1-.1-.3 0-.3.2zm2.7 1.2c-.1-.1-.3 0-.2.2 1 1.3 1.9 2.7 2.9 4 .1.1.2 0 .2-.1-.9-1.5-1.9-2.8-2.9-4.1zm1.5-.1c-.2-.1-.4.1-.2.2 1.4 1.4 2.6 2.8 3.8 4.3.9 1.2 1.7 2.6 2.7 3.8.1.1.2 0 .2-.1-1.4-3.1-4.1-5.9-6.5-8.2zm3.1 1.4c-.2-.2-.4.1-.3.3 2 2.1 3.6 4.3 5.3 6.6.1.1.3 0 .2-.2-1.3-2.5-3.3-4.7-5.2-6.7zm2.8 1.1c-.1-.1-.2 0-.2.1 1.2 1.6 2.3 3.2 3.4 4.9.1.1.3 0 .2-.1-.9-1.8-2.1-3.4-3.4-4.9zm7 6.1c-1.1-2.1-3-3.8-4.9-5.1-.1-.1-.3.1-.2.2 1.9 1.5 3.3 3.2 4.8 5.1.2.2.4 0 .3-.2zm-17.1-9.1c.1.1.2 0 .1-.1-.1-.3-.3-.5-.6-.7-.1-.1-.3.1-.3.2.8 2 1.8 4.1 3 5.9.1.1.2 0 .2-.1-.6-1.7-1.5-3.5-2.4-5.2zm-2.1-1.1c.4 1.4.8 2.9 1.4 4.2.1.2.3 0 .3-.1-.3-1.4-.9-2.9-1.5-4.2 0-.2-.2-.1-.2.1zm-1 .3c.6 2.3 1 4.7 1.6 7 .1.2.4.2.3-.1-.3-2.4-.9-4.7-1.6-7-.1-.2-.4-.1-.3.1zm-.5.5c.1 1.4-.1 2.9-.1 4.3 0 .2.2.2.3 0 .3-1.4.3-2.9.1-4.4 0 0-.3 0-.3.1zm-.9.3c-1.2 1.8-2.5 4.1-2.7 6.3 0 .2.2.2.3 0 .8-2.2 1.4-4.2 2.7-6.2 0-.1-.2-.3-.3-.1zm-1.9.3c-1.1 1.9-2 4.1-2.3 6.3 0 .2.3.2.3.1.6-2.1 1.2-4.2 2.3-6.1.2-.4-.1-.6-.3-.3zm-1.3.8c-1.1 1.4-2.2 3.1-2.7 4.8-.1.2.2.3.3.1.8-1.7 1.5-3.3 2.6-4.8.1 0-.1-.2-.2-.1zm-1.7.3c-1.2 1.7-2.4 3.6-3 5.7-.1.2.3.3.4.2 1-1.9 1.8-3.8 3-5.6.1-.3-.2-.5-.4-.3zm-1.1.2c.1-.1-.1-.3-.2-.1-1.2 1.8-2.7 4-3.1 6.1 0 .2.2.3.3.1.5-1 .9-2.1 1.3-3.1.5-1 1.1-2 1.7-3zm-1.6-.2c-1.4 1.9-2.7 4.1-3.2 6.4-.1.2.3.3.4.1.9-2.2 1.7-4.3 3.1-6.3.1-.2-.2-.4-.3-.2zm-1.6.8c-1.4 2.2-2.6 4.5-3.2 7 0 .1.1.2.2.1 1-2.4 2-4.7 3.3-6.9.1-.2-.2-.4-.3-.2zm-1.7.3c-1.2 1.2-2.4 2.6-3.1 4.2-.1.1.1.3.2.1.9-1.5 1.8-2.9 3-4.2.1-.1-.1-.2-.1-.1zm-1.9.5c-2.5 1.6-4.9 4.1-5.8 7 0 .1.2.2.2.1 1.6-2.7 3.1-5 5.7-6.8.2-.2.1-.4-.1-.3zm-3.1 1.9c-1.7 1.8-3.3 3.7-4.6 5.7-.1.1.1.2.1.1 1.5-1.9 3-3.9 4.7-5.7 0 0-.1-.2-.2-.1zm.2-.7c.1-.1 0-.3-.1-.2-2.6 1.9-5.5 4.1-6.6 7.3 0 .1.2.2.2.1 1.5-3.1 3.9-5.2 6.5-7.2z" fill="#1b141c" stroke-width="none" opacity="1"></path></g></g><g id="svga-group-nose-single-move" transform="matrix(1,0,0,1,0,0)"><g id="svga-group-nose-single"><path id="SvgjsPath6232" d="M107.41 107.88c1.55 1.26 2.35 2.79 2.47 4.02s-.64 2.35-1.59 2.87c-.96.52-2.59.2-3.74-1.23 0 0-2.31 1.63-3.11 1.83-.8.2-4.67-1-5.74-1.77 0 0-.83 1.53-2.78 1.13s-2.91-2.31-2.43-3.78c.48-1.47 1.59-2.59 2.19-3.07.6-.48 2.63-1.91 4.34-2.39s5.45-1.63 10.39 2.39z" fill="#f0c7b1" stroke-width="none" opacity="1" transform="translate(0 1)" stroke="none"></path><path id="SvgjsPath6233" d="M107.51 107.59c-.16-.15-.45-.01-.38.22.43 1.36 1.79 2.15 2.25 3.5.32.95.04 2.1-.72 2.76-1.18 1.03-2.63.6-3.71-.28-.05-.04-.11-.04-.17-.02.44-.2.91-.34 1.45-.33.26 0 .32-.33.13-.46-1.65-1.14-2.99.87-4.3 1.57-2.67 1.45-4.99-1.78-7.65-1.6-.21.01-.25.3-.05.37.33.12.65.26.98.42-.46.21-.9.47-1.39.56-1.14.22-2.29-.32-2.87-1.31-1.27-2.13.63-3.92 1.98-5.32.09-.1-.02-.25-.14-.19-2.11 1.14-3.89 4.02-2.26 6.26 1.09 1.49 4.17 2.16 5.13.21 1.52.76 3.06 1.73 4.69 1.82 1.79.09 2.83-1.29 4.24-1.97-.06.04-.08.12-.03.2 1.25 1.82 4 1.58 5.12-.24 1.41-2.29-.66-4.66-2.3-6.17z" fill="#c27b55" stroke-width="none" opacity="1" transform="translate(0 1)" stroke="none"></path><path id="SvgjsPath6234" d="M94.75 106.69c1.2-.53 2.39-1 3.69-1.22 1.29-.22 2.56-.08 3.86-.15.16-.01.18-.22.04-.27-1.59-.58-3.53-.4-5.25.2 1.56-2.44 2.21-5.68 1.65-8.5-.04-.2-.33-.14-.34.05-.11 3.13-.66 5.77-1.83 8.65-.71.29-1.37.63-1.94 1.03-.14.09-.03.27.12.21z" fill="#c27b55" stroke-width="none" opacity="1" transform="translate(0 1)" stroke="none"></path><path id="SvgjsPath6235" d="M105.64 107.55c-2.17-2.46-6.64-2.22-8.92-.1-.27.25-.16.8.23.87 1.18.21 2.31.1 3.5.12 1.43.03 2.34.52 3.46 1.36 1.36 1.02 2.74-1.1 1.73-2.25z" fill="#f8d5c3" stroke-width="none" opacity="1" transform="translate(0 1)" stroke="none"></path></g></g><g id="svga-group-hair-front"><path id="SvgjsPath10728" d="M135.8 66.3c-1 3.3-1 5.1-.9 7.6.1 2.4-1 5.1 1.1 4.8 2.1-.3 4.4-.7 5.7-4.2 1.3-3.5 3-8.2 2.9-10-.1-1.8-3.7-9-3.7-9l-3.3 7.8-1.8 3z" fill="#221b23" stroke-width="none" opacity="1"></path><path id="SvgjsPath10729" d="M143.8 74c.4-3.6 1-8.5.2-9.3-.8-.8-5.6 2.2-6 4.8s-.4 7.5-.4 7.5c-.7 2.7-.8 4-.7 5.8.1 1.8-1 3.9.7 3.6.1 0 .2 0 .2-.1-.3 2.3-.1 3.8.2 5.4.3 2.2-.7 4.5 1 4.6s2.7-.6 3.5-3.8c.8-3.2 1.3-6.4 1.4-9.5.1-2.5.2-6.3-.2-8.4.1-.2.1-.4.1-.6zm-81.6 6.8c-.5-1.6-.3-4-1-5.3s-3.5-6.4-3.5-6.4c-.9 1.8-2.3 3.9-2.3 7.1 0 2.7-.4 4.6.2 6.2-.1 1.2-.1 2.4 0 3.1.2 1.1 1.8 8.1 3.4 9.1 1.4.8 2.4-2.9 2.2-6.2 1.6-2.9 1.5-6.1 1-7.6z" fill="#1b141c" stroke-width="none" opacity="1"></path><path id="SvgjsPath10730" d="M59.3 61c-.9.8-2.3 3.2-2.7 5.7s-.4 5 .1 6.2c.6 1.1 3.6 7.3 5.6 6.3 2-1 1.3-3 1.1-6.2s.1-3.7-.7-6.4c-.8-2.8-3.4-5.6-3.4-5.6zm8.9-37.1c-.7-2.5 3 1.4 2.9 7.5-.1 6.2 1 10.6 3.8 13 2.8 2.4 13.2 11.2 13.2 11.2s-2.4.7-7.2-.7-11-3.5-14.2-7.6-2.3-10.2-.9-13.2c1.4-2.9 3.3-6.9 2.4-10.2zm51.4 32c2.2-.6 5.8-1.7 7.5-.6 1.6 1.1 1.7 4.7 5.3 4.6 3.6-.1 6.8-6.5 6.5-9.4-.2-2.9-2.4-7.8-5.9-9.1-3.5-1.3-3.1 2.6-3.5 4.1-.4 1.5.1 2.5-3.5 5.1-3.5 2.7-6.4 5.3-6.4 5.3z" fill="#221b23" stroke-width="none" opacity="1"></path><path id="SvgjsPath10731" d="M131.3 58.4c-.2 1.1-.4 4.4 1.1 6.4s.6 4.3 3.8 3.1c3.2-1.2 6.9-5.4 6.6-8.5-.2-3.1-2.7-10.6-5.3-12-2.7-1.3-2.9 4.6-2.9 4.6l-3.3 6.4zM66.4 40c-1.8 2.1-4.9 2.8-4.2 6.5s5.4 7.7 9.8 8.3 7.7-.1 8.3-.6-9.6-6.2-9.6-6.2l-4.3-8z" fill="#2a232b" stroke-width="none" opacity="1"></path><path id="SvgjsPath10732" d="M62.8 45.5c-1.2 1-2.4 1.5-2.8 4.4-.4 2.9-.5 3.4 1.2 6.7 1.8 3.3 2 5.3 4.6 4.7 2.6-.6 5.5-2.9 5.2-6.5s-2.7-1.3-3.9-4.5-2.1-3.9-2.1-3.9l-2.2-.9z" fill="#221b23" stroke-width="none" opacity="1"></path><path id="SvgjsPath10733" d="M60.9 52.2c-1.2 1.6-2.6 1.9-2.9 4.9s-1.3 2.9.7 6.4c2 3.5 4 7.7 5.9 5.7s1.6-3 1.9-5.4c.3-2.4-.6-4.9-1.7-7-1.2-2.2-3.9-4.6-3.9-4.6zm34.5 5s-6.4 0-10.1-1.8c-3.7-1.8-11.6-8.7-13.2-13.6s.4-14.4-.8-18.9c0 0 1.5 3.8 2.9 5.8s4.4 2 9.2 4.8 9.1 8.5 9.8 12.8 2.2 10.9 2.2 10.9z" fill="#1b141c" stroke-width="none" opacity="1"></path><path id="SvgjsPath10734" d="M73.7 18.1c-.1-.5-2 6.7 2 10.6S85.9 37 87.2 42.2s.9 6.1 2.3 9.3 3.2 6.4 5.8 7.6c2.6 1.2 7.4-.2 7.4-1s4.1 3.5 6.8 2.2c2.7-1.3 10.3-10.6 11.4-17.2s-2.4-13.6-6.8-14.7-21.6-2.4-25.2-4.3c-3.6-1.9-5.2-3.7-5.6-5.1 0 0-.3 3.4 3 7.4S96 33 96 33s4.7 1.2 5.3 5c0 0-8.2-6.4-15-8.9s-10-.9-12.6-11z" fill="#221b23" stroke-width="none" opacity="1"></path><path id="SvgjsPath10735" d="M104.5 60.4s-4.2.3-5.8-4.5S98 42 95.1 37.1s-13.9-7.4-16.7-10.3c-2.7-2.9-3.8-9.3-3.8-9.3s2.7 7.9 6.7 8.4c3.9.5 17.3 4.9 21.7 6.9s9.1 10.3 8.2 15.5-2.5 12.6-6.7 12.1z" fill="#2a232b" stroke-width="none" opacity="1"></path><path id="SvgjsPath10736" d="M110.6 26.7c.6 0 10.8 2.9 15.9 4.5s17 10.3 4.4 17.8-8 8.8-20.3 10.9c-3.4.6 3.6-5.6 6.3-11 2.7-5.4 2.5-14.6 1-16.6s-7.3-5.6-7.3-5.6z" fill="#1b141c" stroke-width="none" opacity="1"></path><path id="SvgjsPath10737" d="M96.3 58.9c-3.5-3-5.5-6.7-6.4-11.2-.6-3.2-.3-6.8-1.7-9.7-.9-1.8-2.2-3-3.8-4.1-4.4-3.1-7.9-5-9.8-10.5-.1-.2-.4-.1-.3.1.8 3 2.2 5.6 4.6 7.6 4.2 3.7 8.6 4.8 9.5 11.3.8 6.3 1.6 13.5 7.9 16.8-.1 0 .1-.2 0-.3zm2.5-.6c-6.1-2.7-8.2-8.4-8.7-14.6 0-.2-.3-.2-.3 0-.2 6.2 2.7 12.8 8.9 14.9.2 0 .3-.2.1-.3zm3.5.5c-3.5-4-4.4-8.4-4.3-13.6.1-2.9.5-5.9-1.2-8.5-1.4-2.2-3.7-3.1-5.9-4.2-3.7-1.8-7.3-3.6-11-5.1-.1 0-.2.1-.1.2 3.5 2 7.2 3.7 10.8 5.5 2.8 1.4 5.2 2.4 6.3 6 .6 1.9.2 4.2.2 6.1-.2 5.5 1.1 9.9 5 13.8.1.2.4-.1.2-.2zm3.6-.3c-3.7-3.2-1.6-6.9-1.5-11 0-2.6-.7-4.9-2-7.1-.1-.2-.3 0-.2.1 1.1 2.4 1.7 4.9 1.6 7.5-.1 1.8-.8 3.5-.8 5.3-.1 2.3 1 4 2.8 5.3.1.2.2 0 .1-.1zm18.3-25.6c-.2-.1-.3.2-.1.3.8.3 1.6.5 2.4.8v.1c7.6 6.6-2.7 14.6-7.7 18.1-.2.1 0 .4.2.3 5.3-2.8 16-12.5 8.1-18.3 3.1 1.3 3.8 2 4.7 5.5.8 3.2.4 4.9-2 7.4-1.3 1.4-3.1 2.4-4.8 3.4-4.2 2.5-7.9 5.8-12.2 8.2-.1 0 0 .2.1.1 4.4-2 8.1-5.5 12.3-8 2.8-1.7 5.7-3.5 7.1-6.5 3-6.4-2.7-10-8.1-11.4zm-10.5-3.3c-.1 0-.2.2 0 .2 4.6 1 9.8 2.1 10.5 7.7.5 4-2.1 7.8-4.8 10.4-3.5 3.3-7.4 5.9-8.2 11-.1.4.5.6.6.2 1.5-8.6 12.7-10.9 13.2-20.3.4-6.8-5.6-8.8-11.3-9.2zm-1.1 8.2c-4.2-9.5-17.4-8.6-24.7-14.5-.1-.1-.3.1-.2.2 7.2 6.7 18.9 5.6 24.3 14.6.3.3.8 0 .6-.3zm25.8 14.3c-.1-.2-.4-.2-.4 0 .1 5.3-6.3 8.5-4.5 14 .1.2.4.1.3-.1-1.3-5.4 5.8-8.4 4.6-13.9zm3.1 7.4c0-.2-.3-.2-.4 0-.6 1.8-1 3.6-1.9 5.3-.8 1.4-1.9 2.5-2.6 3.9-1 2-1.1 4-.5 6.1.1.2.4.1.3-.1-.6-4 1.4-5.9 3.3-9.1 1.1-1.9 1.6-4 1.8-6.1zm.7 2c0-.3-.4-.2-.5.1-.2 2.2-.4 4.1-1.2 6.1-.1.2.2.4.3.2 1-1.9 1.7-4.2 1.4-6.4zm0 11.7c0-.2-.3-.2-.4-.1-.6 3-1.6 5.7-2.5 8.6-.6 1.9-.8 3.6 0 5.4.1.3.6.1.5-.2-1-2.8.3-5.1 1.2-7.7.8-1.9 1.2-3.9 1.2-6zm-.2 8c-.5 1.1-.6 2.5-.6 3.7 0 .2.4.2.4 0 0-1.2.3-2.3.5-3.5 0-.3-.2-.5-.3-.2zM86.9 53.1c-4.5-1.6-8.2-3.9-10.6-8.2-2.5-4.4-2.2-9-2.3-13.9 0-.3-.5-.3-.5 0-.9 9.7 2.8 20 13.3 22.4.3.1.3-.2.1-.3zm-8.6-2c-2.7-1.7-5.5-4.7-7-7.5-1.9-3.4-1.8-7.3-1.7-11.1 0-.3-.4-.3-.4 0-.5 7.7 1.7 15 9 18.9.1.1.3-.2.1-.3zm-3.7.1c-3.8-1.8-6.7-4.4-8.4-8.4-.1-.2-.5-.2-.4.1 1.2 4 4.4 7.7 8.6 8.7.2.1.4-.3.2-.4zm-4.3 1.6c-1.7-.7-3.3-1.5-4.8-2.5-.1-.1-.2.1-.1.2 1.5 1 3.1 1.9 4.9 2.5.1-.1.1-.2 0-.2zM66 57.6c-1.6-1.5-3.2-2.8-4.4-4.6-.1-.2-.4 0-.3.2 1.2 1.8 2.7 3.6 4.5 4.7.1 0 .3-.2.2-.3zm55.6-20.7c-.4-3.5-3.1-6.2-6.5-6.7-.2 0-.2.2-.1.2 4.1 1.4 7.1 5.1 5.7 9.7-.8 2.6-3 4.6-4.6 6.7-.1.1.1.2.2.1 2.6-2.9 5.8-5.7 5.3-10zm-10.2-3.3c-.2-.2-.4.1-.2.2 5.6 6.5.8 14.3-1.4 21.2-.1.2.2.3.3.1 2.6-6.6 7.5-15.5 1.3-21.5zm-16.7-.9c-.2 0-.3.2-.1.3 8.9 2.5 3.9 14.4 6.7 20.7.1.2.3 0 .3-.1-1.8-6.4 2.2-18.9-6.9-20.9z" fill="#3a353a" stroke-width="none" opacity="1"></path></g><g id="svga-group-glasses-single-move" transform="matrix(1,0,0,1,0,0)"><g id="svga-group-glasses-single"><path id="SvgjsPath10641" d="M86.01 82.48c-6.64-.22-16.46.63-20.04 4.22-3.59 3.59-4.64 7.7-2.85 15.82s7.81 10.65 12.24 10.86c4.43.21 11.71-2.11 18.99-12.24s1.36-18.34-8.34-18.66z" fill="url(#SvgjsLinearGradient10642)" opacity="1"></path><path id="SvgjsPath10650" d="M113.99 82.48c6.64-.22 16.46.63 20.04 4.22 3.59 3.59 4.64 7.7 2.85 15.82-1.79 8.12-7.81 10.65-12.24 10.86s-11.71-2.11-18.99-12.24-1.36-18.34 8.34-18.66z" fill="url(#SvgjsLinearGradient10651)" opacity="1"></path><path id="SvgjsPath10659" d="M139.5 95.1c-.21-.11-1.47-.21-1.71-.23-.06-1.25-.27-2.49-.69-3.68-.76-2.08-2.11-3.93-3.87-5.3-1.84-1.27-3.99-1.93-6.12-2.41-4.3-.93-8.73-1.14-13.11-1.01-2.19.07-4.4.55-6.36 1.56-1.66.85-3.09 2.16-4.03 3.77-1.26-1.27-2.51-1.78-3.87-1.71-1.85.1-3.04 1.32-3.36 1.68-.95-1.6-2.37-2.9-4.01-3.74-1.96-1.02-4.16-1.49-6.36-1.56-4.38-.13-8.81.08-13.11 1.01-2.14.48-4.29 1.14-6.12 2.41a11.957 11.957 0 0 0-3.87 5.3c-.42 1.19-.62 2.43-.69 3.68-.25.02-1.5.13-1.71.23-.24.12-.24 2.5-.08 2.75.14.24 1.71.27 1.91.27.22 2.06.58 4.1 1.2 6.08.71 2.07 1.77 4.08 3.36 5.61 1.55 1.57 3.56 2.65 5.69 3.22 2.13.58 4.41.58 6.56.06 2.14-.53 4.19-1.45 6.03-2.65 3.72-2.4 6.73-5.73 9.31-9.28 1.25-1.81 2.32-3.79 2.85-5.94.53-2.14.45-4.47-.46-6.5.25-.29 1.43-1.55 2.91-1.63 1.08-.06 2.27.59 3.32 1.66-.89 2.02-.97 4.33-.44 6.46.53 2.16 1.6 4.13 2.85 5.94 2.58 3.55 5.59 6.88 9.31 9.28 1.85 1.2 3.89 2.12 6.03 2.65 2.15.52 4.42.52 6.56-.06 2.13-.56 4.14-1.65 5.69-3.22 1.59-1.54 2.66-3.54 3.36-5.61.62-1.98.98-4.02 1.2-6.08.21 0 1.77-.03 1.91-.27.16-.24.16-2.62-.08-2.74zm-42.4.06c-.55 2.11-1.58 4.06-2.82 5.86-2.56 3.54-5.55 6.85-9.23 9.23-1.83 1.19-3.84 2.12-5.95 2.66-2.12.53-4.36.55-6.48-.01-2.11-.54-4.11-1.61-5.66-3.15-1.59-1.51-2.66-3.5-3.34-5.57-.64-2.09-.99-4.28-1.2-6.45-.18-2.17-.09-4.41.65-6.47.75-2.04 2.13-3.85 3.82-5.19 1.78-1.26 3.91-1.94 6.03-2.44 4.28-.97 8.7-1.22 13.08-1.13 2.19.09 4.38.59 6.32 1.61 1.94 1.01 3.55 2.66 4.41 4.66.87 2.01.92 4.29.37 6.39zm40.48 2.56c-.2 2.18-.56 4.36-1.2 6.45-.68 2.07-1.75 4.06-3.34 5.57-1.55 1.54-3.55 2.61-5.66 3.15-2.12.55-4.36.53-6.48.01-2.11-.54-4.12-1.47-5.95-2.66-3.68-2.38-6.67-5.69-9.23-9.23-1.24-1.79-2.27-3.75-2.82-5.86-.55-2.1-.5-4.38.37-6.39.85-2 2.47-3.65 4.41-4.66 1.94-1.03 4.13-1.52 6.32-1.61 4.38-.09 8.8.15 13.08 1.13 2.12.5 4.25 1.18 6.03 2.44 1.69 1.34 3.07 3.15 3.82 5.19.73 2.06.83 4.3.65 6.47z" fill="#26120b" stroke-width="none" opacity="1"></path></g></g></g></g></g><rect id="svga-credit-rect" width="200" height="15" x="0" y="185" fill="#ecf0f1" opacity="0.5" style="display: none;"></rect><text id="svga-credit-text" font-family="Avenir Next, Roboto, Helvetica, Arial, sans-serif" font-size="10px" text-anchor="start" font-weight="400" size="10px" anchor="start" weight="400" fill="#333333" x="33.402061462402344" y="182.71133995056152" style="display: none;"><tspan id="SvgjsTspan5835" dy="13" x="33.402061462402344">Created on AvatarMaker.com</tspan></text></g><defs id="SvgjsDefs5782"><linearGradient id="SvgjsLinearGradient8991" x1="80.6974" y1="83.7641" x2="80.6974" y2="106.8942" gradientUnits="userSpaceOnUse" class="svga-on-canvas-glasses-gradient-single-0-null"><stop id="SvgjsStop8992" stop-opacity="1" stop-color="#000000" offset="0" ></stop><stop id="SvgjsStop8993" stop-opacity="0" stop-color="#000000" offset="1" ></stop></linearGradient><linearGradient id="SvgjsLinearGradient8995" x1="-19.3026" y1="83.7641" x2="-19.3026" y2="106.8942" gradientTransform="matrix(-1 0 0 1 100 0)" gradientUnits="userSpaceOnUse" class="svga-on-canvas-glasses-gradient-single-1-null"><stop id="SvgjsStop8996" stop-opacity="1" stop-color="#000000" offset="0" ></stop><stop id="SvgjsStop8997" stop-opacity="0" stop-color="#000000" offset="1" ></stop></linearGradient><linearGradient id="SvgjsLinearGradient10143" x1="79.9394" y1="87.3745" x2="79.9394" y2="107.9537" gradientUnits="userSpaceOnUse" class="svga-on-canvas-glasses-gradient-single-0-null"><stop id="SvgjsStop10144" stop-opacity="1" stop-color="#ffba38" offset="0.004166667" ></stop><stop id="SvgjsStop10145" stop-opacity="0.8314" stop-color="#f5b232" offset="0.1721" ></stop><stop id="SvgjsStop10146" stop-opacity="0.541" stop-color="#d99d24" offset="0.4612" ></stop><stop id="SvgjsStop10147" stop-opacity="0.1664" stop-color="#ac7b0c" offset="0.8343" ></stop><stop id="SvgjsStop10148" stop-opacity="0" stop-color="#966a00" offset="1" ></stop></linearGradient><linearGradient id="SvgjsLinearGradient10151" x1="-20.0606" y1="87.3745" x2="-20.0606" y2="107.9537" gradientTransform="matrix(-1 0 0 1 100 0)" gradientUnits="userSpaceOnUse" class="svga-on-canvas-glasses-gradient-single-2-null"><stop id="SvgjsStop10152" stop-opacity="1" stop-color="#ffba38" offset="0.004166667" ></stop><stop id="SvgjsStop10153" stop-opacity="0.8314" stop-color="#f5b232" offset="0.1721" ></stop><stop id="SvgjsStop10154" stop-opacity="0.541" stop-color="#d99d24" offset="0.4612" ></stop><stop id="SvgjsStop10155" stop-opacity="0.1664" stop-color="#ac7b0c" offset="0.8343" ></stop><stop id="SvgjsStop10156" stop-opacity="0" stop-color="#966a00" offset="1" ></stop></linearGradient><linearGradient id="SvgjsLinearGradient10223" x1="79.9234" y1="82.4503" x2="79.9234" y2="113.401" gradientUnits="userSpaceOnUse" class="svga-on-canvas-glasses-gradient-single-0-null"><stop id="SvgjsStop10224" stop-opacity="1" stop-color="#150000" offset="0.004166667" ></stop><stop id="SvgjsStop10225" stop-opacity="0.8088" stop-color="#190300" offset="0.1945" ></stop><stop id="SvgjsStop10226" stop-opacity="0.6342" stop-color="#240c00" offset="0.3684" ></stop><stop id="SvgjsStop10227" stop-opacity="0.466" stop-color="#361b00" offset="0.5359" ></stop><stop id="SvgjsStop10228" stop-opacity="0.3018" stop-color="#503100" offset="0.6994" ></stop><stop id="SvgjsStop10229" stop-opacity="0.1421" stop-color="#724c00" offset="0.8585" ></stop><stop id="SvgjsStop10230" stop-opacity="0" stop-color="#966a00" offset="1" ></stop></linearGradient><linearGradient id="SvgjsLinearGradient10232" x1="-20.0765" y1="82.4503" x2="-20.0765" y2="113.401" gradientTransform="matrix(-1 0 0 1 100 0)" gradientUnits="userSpaceOnUse" class="svga-on-canvas-glasses-gradient-single-1-null"><stop id="SvgjsStop10233" stop-opacity="1" stop-color="#150000" offset="0.004166667" ></stop><stop id="SvgjsStop10234" stop-opacity="0.8088" stop-color="#190300" offset="0.1945" ></stop><stop id="SvgjsStop10235" stop-opacity="0.6342" stop-color="#240c00" offset="0.3684" ></stop><stop id="SvgjsStop10236" stop-opacity="0.466" stop-color="#361b00" offset="0.5359" ></stop><stop id="SvgjsStop10237" stop-opacity="0.3018" stop-color="#503100" offset="0.6994" ></stop><stop id="SvgjsStop10238" stop-opacity="0.1421" stop-color="#724c00" offset="0.8585" ></stop><stop id="SvgjsStop10239" stop-opacity="0" stop-color="#966a00" offset="1" ></stop></linearGradient><linearGradient id="SvgjsLinearGradient10308" x1="80.8481" y1="82.7246" x2="80.8481" y2="107.5423" gradientUnits="userSpaceOnUse" class="svga-on-canvas-glasses-gradient-single-0-null"><stop id="SvgjsStop10309" stop-opacity="1" stop-color="#3d2d1c" offset="0.0208" ></stop><stop id="SvgjsStop10310" stop-opacity="0.6291" stop-color="#402e1c" offset="0.3825" ></stop><stop id="SvgjsStop10311" stop-opacity="0.3897" stop-color="#48321d" offset="0.6159" ></stop><stop id="SvgjsStop10312" stop-opacity="0.1881" stop-color="#57381f" offset="0.8124" ></stop><stop id="SvgjsStop10313" stop-opacity="7.593334e-03" stop-color="#6c4221" offset="0.9884" ></stop><stop id="SvgjsStop10314" stop-opacity="0" stop-color="#6d4221" offset="0.9958" ></stop></linearGradient><linearGradient id="SvgjsLinearGradient10316" x1="-18.8571" y1="82.7246" x2="-18.8571" y2="107.5423" gradientTransform="matrix(-1 0 0 1 100.2947 0)" gradientUnits="userSpaceOnUse" class="svga-on-canvas-glasses-gradient-single-1-null"><stop id="SvgjsStop10317" stop-opacity="1" stop-color="#3d2d1c" offset="0.0208" ></stop><stop id="SvgjsStop10318" stop-opacity="0.6291" stop-color="#402e1c" offset="0.3825" ></stop><stop id="SvgjsStop10319" stop-opacity="0.3897" stop-color="#48321d" offset="0.6159" ></stop><stop id="SvgjsStop10320" stop-opacity="0.1881" stop-color="#57381f" offset="0.8124" ></stop><stop id="SvgjsStop10321" stop-opacity="7.593334e-03" stop-color="#6c4221" offset="0.9884" ></stop><stop id="SvgjsStop10322" stop-opacity="0" stop-color="#6d4221" offset="0.9958" ></stop></linearGradient><linearGradient id="SvgjsLinearGradient10396" x1="79.9234" y1="82.4503" x2="79.9234" y2="113.401" gradientUnits="userSpaceOnUse" class="svga-on-canvas-glasses-gradient-single-0-null"><stop id="SvgjsStop10397" stop-opacity="1" stop-color="#150000" offset="0.004166667" ></stop><stop id="SvgjsStop10398" stop-opacity="0.8088" stop-color="#190300" offset="0.1945" ></stop><stop id="SvgjsStop10399" stop-opacity="0.6342" stop-color="#240c00" offset="0.3684" ></stop><stop id="SvgjsStop10400" stop-opacity="0.466" stop-color="#361b00" offset="0.5359" ></stop><stop id="SvgjsStop10401" stop-opacity="0.3018" stop-color="#503100" offset="0.6994" ></stop><stop id="SvgjsStop10402" stop-opacity="0.1421" stop-color="#724c00" offset="0.8585" ></stop><stop id="SvgjsStop10403" stop-opacity="0" stop-color="#966a00" offset="1" ></stop></linearGradient><linearGradient id="SvgjsLinearGradient10405" x1="-20.0765" y1="82.4503" x2="-20.0765" y2="113.401" gradientTransform="matrix(-1 0 0 1 100 0)" gradientUnits="userSpaceOnUse" class="svga-on-canvas-glasses-gradient-single-1-null"><stop id="SvgjsStop10406" stop-opacity="1" stop-color="#150000" offset="0.004166667" ></stop><stop id="SvgjsStop10407" stop-opacity="0.8088" stop-color="#190300" offset="0.1945" ></stop><stop id="SvgjsStop10408" stop-opacity="0.6342" stop-color="#240c00" offset="0.3684" ></stop><stop id="SvgjsStop10409" stop-opacity="0.466" stop-color="#361b00" offset="0.5359" ></stop><stop id="SvgjsStop10410" stop-opacity="0.3018" stop-color="#503100" offset="0.6994" ></stop><stop id="SvgjsStop10411" stop-opacity="0.1421" stop-color="#724c00" offset="0.8585" ></stop><stop id="SvgjsStop10412" stop-opacity="0" stop-color="#966a00" offset="1" ></stop></linearGradient><linearGradient id="SvgjsLinearGradient10481" x1="80.0682" y1="83.2839" x2="80.0682" y2="108.722" gradientUnits="userSpaceOnUse" class="svga-on-canvas-glasses-gradient-single-0-null"><stop id="SvgjsStop10482" stop-opacity="1" stop-color="#899ba1" offset="0" ></stop><stop id="SvgjsStop10483" stop-opacity="0.6554" stop-color="#7490b3" offset="0.3446" ></stop><stop id="SvgjsStop10484" stop-opacity="0.2966" stop-color="#6589c0" offset="0.7034" ></stop><stop id="SvgjsStop10485" stop-opacity="0" stop-color="#6086c4" offset="1" ></stop></linearGradient><linearGradient id="SvgjsLinearGradient10487" x1="-19.9318" y1="83.2839" x2="-19.9318" y2="108.722" gradientTransform="matrix(-1 0 0 1 100 0)" gradientUnits="userSpaceOnUse" class="svga-on-canvas-glasses-gradient-single-1-null"><stop id="SvgjsStop10488" stop-opacity="1" stop-color="#899ba1" offset="0" ></stop><stop id="SvgjsStop10489" stop-opacity="0.6554" stop-color="#7490b3" offset="0.3446" ></stop><stop id="SvgjsStop10490" stop-opacity="0.2966" stop-color="#6589c0" offset="0.7034" ></stop><stop id="SvgjsStop10491" stop-opacity="0" stop-color="#6086c4" offset="1" ></stop></linearGradient><linearGradient id="SvgjsLinearGradient10549" x1="80.0429" y1="88.1094" x2="80.0429" y2="107.7139" gradientUnits="userSpaceOnUse" class="svga-on-canvas-glasses-gradient-single-0-null"><stop id="SvgjsStop10550" stop-opacity="1" stop-color="#bfeaf2" offset="0" ></stop><stop id="SvgjsStop10551" stop-opacity="0.649" stop-color="#a1cae3" offset="0.351" ></stop><stop id="SvgjsStop10552" stop-opacity="0" stop-color="#6086c4" offset="1" ></stop></linearGradient><linearGradient id="SvgjsLinearGradient10554" x1="-19.9571" y1="88.1094" x2="-19.9571" y2="107.7139" gradientTransform="matrix(-1 0 0 1 100 0)" gradientUnits="userSpaceOnUse" class="svga-on-canvas-glasses-gradient-single-1-null"><stop id="SvgjsStop10555" stop-opacity="1" stop-color="#bfeaf2" offset="0" ></stop><stop id="SvgjsStop10556" stop-opacity="0.649" stop-color="#a1cae3" offset="0.351" ></stop><stop id="SvgjsStop10557" stop-opacity="0" stop-color="#6086c4" offset="1" ></stop></linearGradient><linearGradient id="SvgjsLinearGradient10642" x1="79.9234" y1="82.4503" x2="79.9234" y2="113.401" gradientUnits="userSpaceOnUse" class="svga-on-canvas-glasses-gradient-single-0-null"><stop id="SvgjsStop10643" stop-opacity="1" stop-color="#150000" offset="0.004166667" ></stop><stop id="SvgjsStop10644" stop-opacity="0.8088" stop-color="#190300" offset="0.1945" ></stop><stop id="SvgjsStop10645" stop-opacity="0.6342" stop-color="#240c00" offset="0.3684" ></stop><stop id="SvgjsStop10646" stop-opacity="0.466" stop-color="#361b00" offset="0.5359" ></stop><stop id="SvgjsStop10647" stop-opacity="0.3018" stop-color="#503100" offset="0.6994" ></stop><stop id="SvgjsStop10648" stop-opacity="0.1421" stop-color="#724c00" offset="0.8585" ></stop><stop id="SvgjsStop10649" stop-opacity="0" stop-color="#966a00" offset="1" ></stop></linearGradient><linearGradient id="SvgjsLinearGradient10651" x1="-20.0765" y1="82.4503" x2="-20.0765" y2="113.401" gradientTransform="matrix(-1 0 0 1 100 0)" gradientUnits="userSpaceOnUse" class="svga-on-canvas-glasses-gradient-single-1-null"><stop id="SvgjsStop10652" stop-opacity="1" stop-color="#150000" offset="0.004166667" ></stop><stop id="SvgjsStop10653" stop-opacity="0.8088" stop-color="#190300" offset="0.1945" ></stop><stop id="SvgjsStop10654" stop-opacity="0.6342" stop-color="#240c00" offset="0.3684" ></stop><stop id="SvgjsStop10655" stop-opacity="0.466" stop-color="#361b00" offset="0.5359" ></stop><stop id="SvgjsStop10656" stop-opacity="0.3018" stop-color="#503100" offset="0.6994" ></stop><stop id="SvgjsStop10657" stop-opacity="0.1421" stop-color="#724c00" offset="0.8585" ></stop><stop id="SvgjsStop10658" stop-opacity="0" stop-color="#966a00" offset="1" ></stop></linearGradient></defs></svg>